<svg width="320" height="606" viewBox="0 0 320 606" fill="none" xmlns="http://www.w3.org/2000/svg">
<rect width="320" height="606" fill="#FAFAFA"/>
<mask id="mask0" mask-type="alpha" maskUnits="userSpaceOnUse" x="0" y="0" width="320" height="606">
<rect width="320" height="606" fill="#00A6E8"/>
</mask>
<g mask="url(#mask0)">
<path fill-rule="evenodd" clip-rule="evenodd" d="M-3.95641 516.71C-1.04832 515.574 0.68106 520.017 -2.74085 519.335C-3.1082 518.956 -3.40524 518.528 -3.61412 518.077C-3.823 517.626 -3.93944 517.161 -3.95641 516.71Z" fill="white"/>
<path fill-rule="evenodd" clip-rule="evenodd" d="M-2.45771 407.462C0.234943 407.01 2.8159 406.311 5.25238 405.373C8.13804 407.249 10.8747 409.359 13.419 411.669C13.5881 414.523 13.5628 417.342 13.3431 420.109C10.5256 420.27 7.90911 420.981 5.64952 422.198C-0.481711 418.864 -4.24055 414.564 -2.45771 407.462Z" fill="white"/>
<path fill-rule="evenodd" clip-rule="evenodd" d="M-5.64201 378.121C-2.93359 377.663 -0.339418 376.954 2.10685 376.002C5.01495 377.889 7.76907 380.016 10.3235 382.347C10.6428 385.289 10.433 388.143 9.70273 390.794C0.65391 395.343 -8.48679 387.145 -5.64201 378.121Z" fill="white"/>
<path fill-rule="evenodd" clip-rule="evenodd" d="M-8.15368 349.308C-5.21197 349.309 -3.93785 348.026 -1.38384 347.722C1.67056 348.752 3.66876 351.087 6.02264 352.992C6.61179 355.86 5.9132 357.737 6.24345 360.399C-1.50326 364.684 -10.3798 357.824 -8.15368 349.308Z" fill="white"/>
<path fill-rule="evenodd" clip-rule="evenodd" d="M3.40117 438.915C9.41599 435.421 16.5143 441.545 13.848 447.385C7.60852 450.321 1.25083 444.88 3.40117 438.915Z" fill="white"/>
<path fill-rule="evenodd" clip-rule="evenodd" d="M-8.10946 322.049C-4.29474 321.315 -1.63971 321.548 -0.304167 324.178C3.29385 331.443 -11.035 330.501 -8.10946 322.049Z" fill="white"/>
<path fill-rule="evenodd" clip-rule="evenodd" d="M9.33738 470.395C12.4075 469.185 14.8369 471.602 14.2259 474.608C11.1577 475.834 8.71962 473.404 9.33738 470.395Z" fill="white"/>
<path fill-rule="evenodd" clip-rule="evenodd" d="M13.3295 502.91C12.7845 501.63 14.0386 501.757 13.2111 500.273C14.0053 500.323 14.7897 500.37 14.7185 499.746C15.3687 500.1 15.6054 500.962 16.6427 500.813C18.0626 503.846 14.967 504.6 13.3295 502.91Z" fill="white"/>
<path fill-rule="evenodd" clip-rule="evenodd" d="M14.2193 400.553C14.8381 397.906 14.1445 394.25 14.7168 391.565C16.7877 390.32 20.7806 390.559 22.354 388.923C25.7183 390.946 28.7904 393.455 31.4158 396.324C31.0531 398.895 30.9783 401.554 31.1926 404.263C27.8878 404.697 25.5652 405.886 22.3279 406.369C19.5505 404.543 17.3535 401.95 14.2193 400.553Z" fill="white"/>
<path fill-rule="evenodd" clip-rule="evenodd" d="M10.84 361.691C13.8302 361.44 16.6413 360.724 19.1668 359.57C22.3747 361.236 25.3558 363.384 27.9578 365.903C28.4897 369.311 27.7175 371.703 28.0043 374.893C24.5447 375.204 22.6069 376.706 19.1433 377.017C16.3652 375.185 14.1606 372.583 11.0397 371.207C10.7117 367.821 11.735 365.491 10.84 361.691Z" fill="white"/>
<path fill-rule="evenodd" clip-rule="evenodd" d="M18.6557 421.401C21.885 421.478 23.0987 420.008 25.9836 419.814C28.8706 421.031 30.8164 423.428 33.3633 425.073C32.931 427.306 33.2759 430.124 33.0273 432.472C30.532 433.329 27.9497 434.036 25.2932 434.59C20.4048 431.118 17.6893 427.786 18.6557 421.401Z" fill="white"/>
<path fill-rule="evenodd" clip-rule="evenodd" d="M9.15697 333.392C11.0326 332.431 14.3481 332.591 15.7668 331.292C18.9462 332.679 21.8049 334.884 23.9388 337.595C23.4095 339.589 23.9468 342.401 23.4682 344.432C21.1625 344.939 18.9557 345.643 16.8715 346.537C11.5839 343.885 7.57032 339.593 9.15697 333.392Z" fill="white"/>
<path fill-rule="evenodd" clip-rule="evenodd" d="M32.2576 454.983C33.1358 456.931 31.8831 457.234 32.7675 459.186C23.9812 462.888 24.1371 448.615 32.2576 454.983Z" fill="white"/>
<path fill-rule="evenodd" clip-rule="evenodd" d="M10.0286 307.236C11.9463 307.011 12.3431 305.887 14.2797 306.703C15.9383 307.638 16.4727 310.374 16.1392 311.945C14.3426 311.693 14.4451 312.889 12.4606 312.47C11.6092 311.787 10.9294 310.933 10.4992 310.008C10.0691 309.082 9.90599 308.121 10.0286 307.236Z" fill="white"/>
<path fill-rule="evenodd" clip-rule="evenodd" d="M6.80626 277.865C18.6765 275.483 8.70402 289.799 6.80626 277.865V277.865Z" fill="white"/>
<path fill-rule="evenodd" clip-rule="evenodd" d="M3.70381 248.547C5.33644 248.586 5.3258 247.446 6.17997 247.491C14.8344 247.888 4.29152 260.196 3.70381 248.547Z" fill="white"/>
<path fill-rule="evenodd" clip-rule="evenodd" d="M-2.4472 193.036C-3.14325 191.362 -1.93373 191.171 -2.83445 189.324C-1.02896 189.437 -0.718302 188.392 1.46717 188.787C2.15316 189.471 2.71165 190.248 3.10886 191.069C3.50608 191.891 3.73367 192.741 3.77779 193.568C3.06533 194.258 2.01488 194.588 0.851364 194.489C-0.312153 194.389 -1.49618 193.868 -2.4472 193.036Z" fill="white"/>
<path fill-rule="evenodd" clip-rule="evenodd" d="M-5.60217 163.656C-6.01206 162.189 -6.00065 160.739 -5.56904 159.463C-0.23135 157.127 2.68108 165.086 -2.35459 165.745C-3.71941 165.389 -4.25148 164.01 -5.60217 163.656Z" fill="white"/>
<path fill-rule="evenodd" clip-rule="evenodd" d="M1.00603 219.162C3.87513 218.505 3.99556 219.161 6.35736 220.224C7.65969 224.881 -0.487126 223.935 1.00603 219.162Z" fill="white"/>
<path fill-rule="evenodd" clip-rule="evenodd" d="M30.0452 484.877C31.1163 484.574 31.2764 483.567 33.0733 483.825C34.881 484.925 34.5481 486.521 34.1318 488.04C31.7192 488.31 30.357 487.256 30.0452 484.877Z" fill="white"/>
<path fill-rule="evenodd" clip-rule="evenodd" d="M34.1379 515.803C34.3891 515.349 34.4362 514.787 34.2712 514.214C35.9497 513.949 36.8985 514.672 37.0439 516.334C35.4464 516.917 35.6419 516.58 34.1379 515.803Z" fill="white"/>
<path fill-rule="evenodd" clip-rule="evenodd" d="M31.2964 375.127C33.849 373.977 37.5159 373.658 40.0476 372.465C43.1907 374.544 46.1814 376.853 48.9802 379.363C49.8298 383.145 48.343 385.119 49.189 388.897C41.4449 392.151 37.213 390.326 30.9178 384.652C31.0555 381.473 31.0961 378.239 31.2964 375.127Z" fill="white"/>
<path fill-rule="evenodd" clip-rule="evenodd" d="M35.309 405.456C36.2938 404.632 37.5201 404.069 38.9007 403.809C40.2812 403.548 41.7818 403.597 43.2954 403.95C44.809 404.303 46.2983 404.953 47.6569 405.853C49.0156 406.753 50.2101 407.881 51.1552 409.156C51.4214 411.868 51.3477 414.525 50.9355 417.074C48.8519 418.026 46.0186 418.397 43.7379 419.196C37.73 417.068 33.735 411.818 35.309 405.456Z" fill="white"/>
<path fill-rule="evenodd" clip-rule="evenodd" d="M29.5867 346.815C31.9913 346.491 34.2253 345.777 36.1993 344.702C39.166 346.157 41.9078 348.129 44.2404 350.485C44.5801 353.175 43.4784 354.723 44.4404 357.865C41.9402 358.348 39.546 359.054 37.286 359.974C32.0216 357.326 28.0038 353.028 29.5867 346.815Z" fill="white"/>
<path fill-rule="evenodd" clip-rule="evenodd" d="M27.5521 317.93C32.3864 314.914 36.7138 317.771 40.5505 321.107C40.1656 323.336 40.0072 325.64 40.077 327.994C38.0672 328.31 36.1564 328.848 34.3798 329.597C33.0749 329.267 31.8027 328.653 30.6773 327.809C29.552 326.966 28.6087 325.919 27.932 324.762C27.2553 323.606 26.8664 322.377 26.8 321.184C26.7337 319.992 26.9921 318.874 27.5521 317.93Z" fill="white"/>
<path fill-rule="evenodd" clip-rule="evenodd" d="M-5.01385 23.4507C-0.108779 21.0035 5.16321 22.1525 8.49838 26.6299C8.95561 29.2414 8.00107 30.7845 8.56036 33.4916C6.72559 34.3432 4.25439 34.7271 2.47155 35.6093C-3.01746 33.7159 -6.5815 29.0726 -5.01385 23.4507Z" fill="white"/>
<path fill-rule="evenodd" clip-rule="evenodd" d="M2.14878 83.2166C6.729 80.6239 11.2287 82.4681 14.1873 86.9298C13.3013 87.9597 13.9461 90.1585 13.7296 91.6918C7.91689 95.3432 0.824409 90.4725 2.14878 83.2166Z" fill="white"/>
<path fill-rule="evenodd" clip-rule="evenodd" d="M-1.07407 53.3953C1.05897 53.3971 3.0168 52.8544 4.59786 51.8232C6.80598 53.1741 8.87054 54.7664 10.7327 56.5545C11.8017 59.2128 9.79727 59.51 11.1023 62.3665C5.28451 66.4295 -2.8704 60.7536 -1.07407 53.3953Z" fill="white"/>
<path fill-rule="evenodd" clip-rule="evenodd" d="M-6.78218 -4.78705C-5.01433 -5.20605 -3.30107 -5.7315 -1.65145 -6.36061C0.331379 -5.18359 2.17453 -3.76319 3.81216 -2.15016C4.08679 -0.138379 4.02615 1.82692 3.63243 3.67609C-2.82231 6.29926 -8.54465 1.46154 -6.78218 -4.78705Z" fill="white"/>
<path fill-rule="evenodd" clip-rule="evenodd" d="M41.6621 436.397C46.07 434.513 48.4351 436.428 51.7362 439.045C51.4966 440.846 51.7983 443.081 51.5511 444.869C45.4945 447.703 39.3585 441.937 41.6621 436.397Z" fill="white"/>
<path fill-rule="evenodd" clip-rule="evenodd" d="M6.02027 113.121C11.4121 109.374 18.6712 114.974 16.2852 121.043C14.4896 121.294 12.7358 121.646 11.0322 122.097C9.21308 121.256 7.66335 119.838 6.72355 118.154C5.78374 116.471 5.53079 114.661 6.02027 113.121Z" fill="white"/>
<path fill-rule="evenodd" clip-rule="evenodd" d="M27.1357 290.776C28.9467 290.894 29.2331 289.845 31.4299 290.252C32.3555 291.029 33.0855 291.985 33.538 293.013C33.9906 294.041 34.1478 295.101 33.992 296.072C29.8352 297.815 25.7819 294.706 27.1357 290.776Z" fill="white"/>
<path fill-rule="evenodd" clip-rule="evenodd" d="M23.9478 261.429C25.7602 261.54 26.0513 260.502 28.2455 260.897C29.1716 261.674 29.9019 262.63 30.3541 263.658C30.8064 264.686 30.9627 265.745 30.8054 266.716C26.4719 268.342 22.7091 265.46 23.9478 261.429Z" fill="white"/>
<path fill-rule="evenodd" clip-rule="evenodd" d="M14.2056 177.106C14.1453 175.628 14.3436 174.206 14.7928 172.895C18.6377 171.604 21.3721 174.219 21.0992 178.168C19.3579 178.246 18.972 179.366 16.9332 179.225C16.723 178.692 16.3433 178.197 15.8513 177.815C15.3593 177.432 14.7816 177.184 14.2056 177.106Z" fill="white"/>
<path fill-rule="evenodd" clip-rule="evenodd" d="M20.8075 232.095C22.6025 232.201 22.8904 231.161 25.0667 231.563C25.9161 232.255 26.5921 233.115 27.0184 234.045C27.4447 234.975 27.6043 235.939 27.4792 236.826C25.7561 236.9 25.362 238.004 23.3537 237.881C22.4367 237.108 21.7131 236.158 21.2636 235.137C20.814 234.115 20.6561 233.062 20.8075 232.095Z" fill="white"/>
<path fill-rule="evenodd" clip-rule="evenodd" d="M18.1713 202.758C21.3108 201.039 24.673 204.258 23.7588 207.486C21.9618 207.226 22.0467 208.441 20.0372 208.014C19.1193 207.358 18.4206 206.457 18.0759 205.486C17.7313 204.515 17.7653 203.543 18.1713 202.758Z" fill="white"/>
<path fill-rule="evenodd" clip-rule="evenodd" d="M11.6395 147.765C11.226 146.282 11.2389 144.816 11.6767 143.525C15.6854 142.383 18.0439 144.698 18.0014 148.823C15.3147 149.323 13.5448 149.578 11.6395 147.765Z" fill="white"/>
<path fill-rule="evenodd" clip-rule="evenodd" d="M50.387 500.43C50.8508 499.223 50.1657 497.124 52.3619 497.237C54.8616 497.175 55.5227 499.804 55.1207 501.491C52.8416 502.019 51.8869 500.898 50.387 500.43Z" fill="white"/>
<path fill-rule="evenodd" clip-rule="evenodd" d="M48.7211 467.905C57.3962 471.046 44.3667 473.989 48.7211 467.905V467.905Z" fill="white"/>
<path fill-rule="evenodd" clip-rule="evenodd" d="M55.2984 529.764C54.787 528.372 54.9308 527.49 56.4214 527.65C57.0383 528.261 57.4308 529.017 57.5186 529.765C56.7849 529.765 56.0315 529.763 55.2984 529.764Z" fill="white"/>
<path fill-rule="evenodd" clip-rule="evenodd" d="M51.8342 389.039C54.2677 387.924 57.774 387.646 60.0238 386.395C63.8015 387.678 65.9452 391.013 69.3644 392.75C68.7464 395.38 69.448 399.038 68.8751 401.738C66.3233 402.746 62.6702 402.909 60.7018 404.382C57.5117 402.57 55.0791 399.828 51.9098 398.031C52.1349 395.091 52.1097 392.085 51.8342 389.039Z" fill="white"/>
<path fill-rule="evenodd" clip-rule="evenodd" d="M49.2861 359.697C52.0487 359.118 54.2952 358.154 57.0548 357.569C60.6098 358.684 62.5201 361.843 65.7201 363.391C65.5482 366.088 65.605 368.981 65.6509 371.874C57.3059 377.502 45.8134 369.29 49.2861 359.697Z" fill="white"/>
<path fill-rule="evenodd" clip-rule="evenodd" d="M18.5189 65.7333C21.6383 65.5954 23.2268 64.2612 26.385 64.1526C28.0434 66.4556 30.6512 67.5604 32.68 69.4158C32.7897 72.1976 32.5797 74.7329 32.462 77.3392C30.0219 77.4584 27.7285 77.9954 25.6881 78.9253C19.5572 76.9092 16.6464 71.2777 18.5189 65.7333Z" fill="white"/>
<path fill-rule="evenodd" clip-rule="evenodd" d="M15.3238 36.3859C18.1277 36.2722 19.4028 34.9891 22.0991 34.8047C24.9904 35.999 26.9413 38.418 29.4949 40.0674C29.3232 42.4765 29.3914 44.9469 29.6985 47.4497C27.0198 48.3166 24.2535 49.0278 21.4125 49.5798C16.5891 46.3595 13.1924 41.9071 15.3238 36.3859Z" fill="white"/>
<path fill-rule="evenodd" clip-rule="evenodd" d="M11.5628 7.01232C16.9233 4.24964 22.7076 6.07408 26.3018 10.7046C26.225 13.1423 26.2948 15.614 26.5108 18.1088C23.794 18.8498 21.1692 19.6513 18.2017 20.216C13.4112 16.8325 10.4513 13.3081 11.5628 7.01232Z" fill="white"/>
<path fill-rule="evenodd" clip-rule="evenodd" d="M47.4615 331.395C49.9329 331.014 51.7855 330.169 54.2803 329.82C56.8406 330.788 58.2446 333.209 60.9134 334.047C61.0143 336.412 60.6311 338.391 60.9783 340.948C54.934 345.923 45.0097 339.375 47.4615 331.395Z" fill="white"/>
<path fill-rule="evenodd" clip-rule="evenodd" d="M57.6664 419.951C62.2692 417.339 67.2764 419.035 70.1906 423.649C69.5173 425.251 70.0616 427.796 69.4481 429.457C67.5238 429.547 65.7669 430.091 64.331 431.043C58.9649 429.28 56.4527 425.172 57.6664 419.951Z" fill="white"/>
<path fill-rule="evenodd" clip-rule="evenodd" d="M22.4881 96.1276C24.0932 95.2541 26.1033 94.987 28.2011 95.3684C30.299 95.7498 32.3653 96.7581 34.0738 98.2341C35.6313 101.717 33.6537 102.472 34.834 105.637C31.7494 105.536 31.0178 107.237 27.3622 106.678C23.6962 104.272 21.8257 100.696 22.4881 96.1276Z" fill="white"/>
<path fill-rule="evenodd" clip-rule="evenodd" d="M46.2114 303.161C54.5055 297.152 60.9296 313.258 51.1974 312.11C47.0898 311.603 44.539 307.073 46.2114 303.161Z" fill="white"/>
<path fill-rule="evenodd" clip-rule="evenodd" d="M27.6298 126.557C29.3972 126.638 30.9743 126.572 31.244 125.5C33.2984 126.14 34.3062 128.125 36.4501 128.666C36.756 130.462 35.6892 131.201 36.533 133.414C32.1259 137.296 25.0033 131.799 27.6298 126.557Z" fill="white"/>
<path fill-rule="evenodd" clip-rule="evenodd" d="M43.6969 274.329C47.342 273.493 48.0922 273.373 51.0936 275.383C51.6277 277.15 51.8951 278.921 51.8876 280.639C50.2706 280.879 48.7018 281.231 47.1926 281.694C44.5409 279.298 43.1644 278.147 43.6969 274.329Z" fill="white"/>
<path fill-rule="evenodd" clip-rule="evenodd" d="M40.5528 245.003C42.7647 245.158 42.9971 243.791 45.2181 243.951C47.8706 246.343 49.2382 247.504 48.7198 251.299C47.1103 251.545 45.5459 251.897 44.0368 252.351C41.6018 250.117 39.5876 248.461 40.5528 245.003Z" fill="white"/>
<path fill-rule="evenodd" clip-rule="evenodd" d="M38.4572 215.61C41.7585 214.442 42.6891 216.331 45.1366 217.746C46.8652 225.233 34.1375 220.844 38.4572 215.61Z" fill="white"/>
<path fill-rule="evenodd" clip-rule="evenodd" d="M34.1931 186.299C36.4292 186.46 36.6663 185.081 38.9153 185.238C39.124 185.773 39.5042 186.27 39.998 186.653C40.4917 187.037 41.0719 187.285 41.6497 187.361C45.3237 195.786 32.0729 193.753 34.1931 186.299Z" fill="white"/>
<path fill-rule="evenodd" clip-rule="evenodd" d="M32.1176 156.958C35.9216 155.701 38.6397 158.297 38.3457 162.196C37.1359 162.124 36.0572 162.502 35.3399 163.251C34.6675 163.018 34.0273 162.647 33.4723 162.171C32.9173 161.694 32.4636 161.125 32.1486 160.51C31.8337 159.894 31.6666 159.251 31.6612 158.634C31.6558 158.016 31.8122 157.442 32.1176 156.958Z" fill="white"/>
<path fill-rule="evenodd" clip-rule="evenodd" d="M67.6459 484.526C67.5845 483.42 67.6864 482.346 67.949 481.335C71.334 480.565 73.0481 483.237 72.3608 485.586C70.1014 486.119 69.1267 484.995 67.6459 484.526Z" fill="white"/>
<path fill-rule="evenodd" clip-rule="evenodd" d="M64.2705 451.962C64.9402 452.055 65.2331 451.842 65.2486 451.446C67.9542 451.285 69.5594 452.521 70.0641 455.156C69.9404 455.492 69.7361 455.784 69.4636 456.013C69.1911 456.243 68.8562 456.406 68.4793 456.493C68.1024 456.579 67.6914 456.586 67.2714 456.515C66.8515 456.443 66.4315 456.294 66.037 456.077C65.6425 455.86 65.282 455.578 64.9772 455.25C64.6725 454.922 64.4301 454.554 64.2647 454.169C64.0994 453.784 64.0146 453.39 64.0157 453.01C64.0167 452.631 64.1033 452.274 64.2705 451.962Z" fill="white"/>
<path fill-rule="evenodd" clip-rule="evenodd" d="M71.9609 513.829C71.7826 513.127 71.6064 512.422 71.4307 511.72C71.8883 511.482 72.424 511.358 72.9982 511.358C73.5725 511.358 74.1706 511.481 74.7482 511.719C74.9713 512.599 75.1962 513.482 75.4158 514.358C73.3312 514.588 73.5907 514.934 71.9609 513.829Z" fill="white"/>
<path fill-rule="evenodd" clip-rule="evenodd" d="M30.6562 19.4457C33.4402 18.4865 37.2341 18.2922 39.3558 16.8001C42.4904 18.8633 45.4695 21.1649 48.2509 23.6725C48.6546 26.9493 48.5329 30.1479 47.8897 33.1638C44.5937 33.5998 42.2722 34.7835 39.0631 35.2794C36.2812 33.4419 34.0915 30.859 30.9814 29.4693C30.0681 25.5147 31.0941 23.0438 30.6562 19.4457Z" fill="white"/>
<path fill-rule="evenodd" clip-rule="evenodd" d="M70.4107 373.662C73.1293 372.89 75.7946 372.087 78.7403 371.523C80.6416 373.707 83.0057 375.531 85.6146 376.827C85.5272 379.602 85.3731 382.329 85.5437 385.288C76.8665 389.518 67.5621 382.353 70.4107 373.662Z" fill="white"/>
<path fill-rule="evenodd" clip-rule="evenodd" d="M35.075 49.2972C37.6071 48.9723 40.0524 48.4357 42.3846 47.6932C45.3672 49.147 48.1221 51.1263 50.4598 53.495C50.7055 56.3649 50.6855 59.1905 50.4 61.9413C47.0505 61.7766 45.7946 63.2037 43.0774 63.526C36.5418 61.3833 33.1068 55.4298 35.075 49.2972Z" fill="white"/>
<path fill-rule="evenodd" clip-rule="evenodd" d="M74.1554 402.999C76.6101 402.906 78.9117 402.368 80.94 401.412C83.6843 402.863 85.6506 405.262 88.3725 406.706C87.9607 408.898 87.9919 411.234 88.4646 413.609C81.3474 419.018 70.7016 411.45 74.1554 402.999Z" fill="white"/>
<path fill-rule="evenodd" clip-rule="evenodd" d="M67.2685 344.33C69.8283 343.975 72.2336 343.265 74.4136 342.22C77.0762 343.918 79.5893 345.856 81.9043 347.996C82.3934 350.785 81.2145 352.265 82.1234 355.373C79.5839 355.77 77.1833 356.478 74.9758 357.479C69.3473 354.551 66.3299 351.035 67.2685 344.33Z" fill="white"/>
<path fill-rule="evenodd" clip-rule="evenodd" d="M64.5706 314.921C70.0137 312.225 75.6288 314.087 78.9087 319.16C78.5907 321.238 78.3926 323.356 78.3152 325.505C75.9704 326.638 73.3489 327.361 70.5506 327.645C65.5574 324.12 63.0398 320.913 64.5706 314.921Z" fill="white"/>
<path fill-rule="evenodd" clip-rule="evenodd" d="M28.9279 -8.37097C33.6563 -11.6892 39.9242 -10.062 43.5265 -5.20365C43.8541 -2.70087 42.9033 -1.15763 43.6098 1.65143C41.7254 2.89535 38.2685 2.92473 36.5494 4.29819C31.0442 1.27527 28.0085 -1.70759 28.9279 -8.37097Z" fill="white"/>
<path fill-rule="evenodd" clip-rule="evenodd" d="M39.0548 79.6752C43.7075 77.0445 49.3519 78.488 52.5481 82.8532C53.527 86.0057 52.4081 87.5578 52.7599 90.2381C50.3083 90.6213 48.4714 91.4743 45.9761 91.834C40.6163 89.8613 37.596 85.1291 39.0548 79.6752Z" fill="white"/>
<path fill-rule="evenodd" clip-rule="evenodd" d="M42.9105 109.556C45.9878 109.636 46.7258 107.93 50.3953 108.492C51.5971 110.452 53.7754 111.195 55.3424 112.716C55.1999 114.809 55.1849 116.935 55.2976 119.085C48.4688 122.944 40.7632 117.002 42.9105 109.556Z" fill="white"/>
<path fill-rule="evenodd" clip-rule="evenodd" d="M63.5901 287.726C65.5573 287.378 66.5271 286.285 69.4272 286.658C70.2539 288.205 71.9531 288.618 73.0105 289.84C72.5772 291.138 72.5645 292.606 72.9734 294.094C68.5807 297.346 62.3157 293.665 63.5901 287.726Z" fill="white"/>
<path fill-rule="evenodd" clip-rule="evenodd" d="M60.4548 258.399C62.05 257.688 63.7632 257.156 65.5663 256.812C66.7389 258.366 68.6606 258.943 69.8293 260.516C69.7101 262.119 69.5154 263.676 69.3696 265.263C64.3323 267.653 59.3833 263.836 60.4548 258.399Z" fill="white"/>
<path fill-rule="evenodd" clip-rule="evenodd" d="M57.2772 229.056C58.8768 228.343 60.5947 227.81 62.4029 227.464C63.5967 228.731 65.008 229.811 66.5482 230.637C66.8607 232.443 65.7845 233.184 66.6481 235.423C62.097 238.077 55.884 234.311 57.2772 229.056Z" fill="white"/>
<path fill-rule="evenodd" clip-rule="evenodd" d="M54.1815 200.237C54.779 199.371 55.7815 198.842 56.9771 198.763C58.1726 198.684 59.4674 199.06 60.5877 199.813C61.7079 200.566 62.5657 201.635 62.9796 202.796C63.3935 203.956 63.3311 205.116 62.8055 206.031C60.4234 205.76 59.9675 206.963 58.1073 207.087C55.9785 204.702 53.9939 204.162 54.1815 200.237Z" fill="white"/>
<path fill-rule="evenodd" clip-rule="evenodd" d="M51.8703 169.858C57.0621 167.851 61.2689 172.784 59.1047 176.713C53.7321 178.571 49.8116 173.86 51.8703 169.858Z" fill="white"/>
<path fill-rule="evenodd" clip-rule="evenodd" d="M81.2757 434.971C84.8737 434.064 85.3244 435.568 87.9233 437.101C87.5526 438.242 87.4922 439.511 87.7466 440.812C83.0917 442.912 79.0701 438.509 81.2757 434.971Z" fill="white"/>
<path fill-rule="evenodd" clip-rule="evenodd" d="M48.8322 141.034C53.0091 139.854 55.8469 142.045 55.5954 146.277C54.9938 146.237 54.4181 146.31 53.9011 146.491C53.3842 146.672 52.9362 146.958 52.5828 147.332C49.8237 146.267 48.6946 144.201 48.8322 141.034Z" fill="white"/>
<path fill-rule="evenodd" clip-rule="evenodd" d="M84.9127 468.581C85.1744 467.561 85.2759 466.479 85.2144 465.364C87.502 464.85 88.4908 465.969 89.9763 466.436C90.5173 468.016 89.1283 468.096 89.6584 469.657C87.3667 470.188 86.406 469.059 84.9127 468.581Z" fill="white"/>
<path fill-rule="evenodd" clip-rule="evenodd" d="M90.0878 494.75C92.5439 494.686 93.195 497.285 92.7804 498.954C88.7752 500.085 87.0439 495.226 90.0878 494.75Z" fill="white"/>
<path fill-rule="evenodd" clip-rule="evenodd" d="M92.4465 525.166C94.0915 524.91 94.986 525.606 95.145 527.26C93.6245 528.068 92.8107 527.434 92.4465 525.166Z" fill="white"/>
<path fill-rule="evenodd" clip-rule="evenodd" d="M54.3347 62.722C57.1819 61.7899 60.5427 61.2585 63.0677 60.0746C66.2061 62.1402 69.1925 64.4383 71.9869 66.9383C71.6335 69.6806 71.6109 72.5209 71.9195 75.4119C69.029 75.9943 66.2887 76.8829 63.7447 78.0627C59.9564 76.7592 57.827 73.4288 54.3996 71.7165C54.2199 68.5949 55.2654 66.4146 54.3347 62.722Z" fill="white"/>
<path fill-rule="evenodd" clip-rule="evenodd" d="M51.7473 33.3195C57.6075 29.529 64.1154 32.3427 68.7438 37.0178C68.3613 39.7562 68.338 42.6033 68.6743 45.5032C66.0793 46.6107 63.3373 47.4919 60.4758 48.1381C53.7524 45.6304 49.8171 40.1481 51.7473 33.3195Z" fill="white"/>
<path fill-rule="evenodd" clip-rule="evenodd" d="M58.8694 92.5918C61.4592 92.2812 63.8797 91.5685 66.0414 90.48C69.1166 91.6615 70.7523 94.7054 73.968 95.7447C74.3652 98.8889 73.4737 101.013 73.8759 104.166C71.362 104.625 68.9647 105.332 66.7191 106.278C60.6241 102.969 57.4671 99.6092 58.8694 92.5918Z" fill="white"/>
<path fill-rule="evenodd" clip-rule="evenodd" d="M49.1992 4.0603C52.03 3.5077 54.7893 2.80267 57.4652 1.94816C59.3452 4.11814 61.6885 5.92681 64.2745 7.20381C64.9154 10.2988 64.9322 13.3407 64.324 16.1684C62.08 16.9619 59.2375 17.3202 57.1683 18.2671C50.6474 16.1203 47.2383 10.1991 49.1992 4.0603Z" fill="white"/>
<path fill-rule="evenodd" clip-rule="evenodd" d="M87.7204 358.242C92.4395 354.889 98.8426 356.609 102.416 361.424C102.75 364.093 102.049 365.977 102.62 368.845C94.9862 373.082 85.39 366.872 87.7204 358.242Z" fill="white"/>
<path fill-rule="evenodd" clip-rule="evenodd" d="M91.4686 387.577C96.1331 384.953 101.767 386.395 104.97 390.752C105.18 393.241 105.248 395.708 105.174 398.142C102.995 398.454 100.91 398.983 98.9502 399.722C93.3168 397.705 90.1666 393.397 91.4686 387.577Z" fill="white"/>
<path fill-rule="evenodd" clip-rule="evenodd" d="M85.058 328.387C88.0132 328.388 89.2853 327.108 91.8329 326.79C94.7905 328.015 97.443 330.065 99.3564 332.604C98.77 334.558 98.7481 336.732 99.2927 338.942C97.4188 339.888 94.4598 340.027 92.6616 341.034C86.9217 339.152 83.6455 334.171 85.058 328.387Z" fill="white"/>
<path fill-rule="evenodd" clip-rule="evenodd" d="M81.8705 299.081C84.8056 299.078 86.0751 297.788 88.6119 297.484C91.5173 298.216 93.0029 300.725 95.2869 302.226C96.2576 305.373 95.1441 306.922 95.4886 309.598C93.8953 310.605 90.611 310.333 89.4353 311.692C83.666 309.758 80.5488 304.912 81.8705 299.081Z" fill="white"/>
<path fill-rule="evenodd" clip-rule="evenodd" d="M77.4245 241.445C83.2772 238.004 89.9325 244.417 87.2573 249.874C81.3888 252.82 75.1667 246.98 77.4245 241.445Z" fill="white"/>
<path fill-rule="evenodd" clip-rule="evenodd" d="M81.2204 270.778C83.8344 271.257 84.1078 269.894 85.8985 269.717C87.289 271.158 88.9004 272.405 90.6511 273.393C90.4292 275.198 90.7258 277.404 90.4823 279.2C84.6174 282.393 78.5273 275.856 81.2204 270.778Z" fill="white"/>
<path fill-rule="evenodd" clip-rule="evenodd" d="M74.2781 212.071C76.1228 211.932 77.8909 211.582 79.5459 211.029C80.9603 212.466 82.5797 213.718 84.3327 214.731C84.0862 216.367 84.1269 218.245 84.0174 220.007C78.8355 223.252 72.422 217.782 74.2781 212.071Z" fill="white"/>
<path fill-rule="evenodd" clip-rule="evenodd" d="M71.6739 182.754C72.4691 182.884 73.2455 182.859 73.953 182.682C74.6605 182.504 75.2835 182.177 75.782 181.722C77.5258 182.709 79.1334 183.95 80.5259 185.384C81.5732 189.434 79.5073 191.078 76.0968 191.69C72.0392 190.021 70.4426 186.487 71.6739 182.754Z" fill="white"/>
<path fill-rule="evenodd" clip-rule="evenodd" d="M64.7094 124.074C69.9823 121.378 75.7741 125.846 74.2986 131.475C69.3153 134.39 63.1116 129.598 64.7094 124.074Z" fill="white"/>
<path fill-rule="evenodd" clip-rule="evenodd" d="M97.4371 419.061C98.4977 418.318 99.9345 418.069 101.445 418.365C102.955 418.66 104.421 419.478 105.534 420.646C105.444 422.199 105.476 423.783 105.632 425.386C103.862 425.298 102.305 425.366 102.045 426.435C101.273 426.135 100.539 425.703 99.8862 425.166C99.2332 424.628 98.675 423.997 98.2448 423.308C97.8146 422.62 97.5214 421.889 97.3826 421.159C97.2438 420.429 97.2623 419.715 97.4371 419.061Z" fill="white"/>
<path fill-rule="evenodd" clip-rule="evenodd" d="M76.1643 155.535C79.4454 165.385 65.3593 159.295 69.2394 154.47C70.9083 152.412 73.7861 154.177 76.1643 155.535Z" fill="white"/>
<path fill-rule="evenodd" clip-rule="evenodd" d="M101.419 449.48C102.957 449.397 103.465 448.534 104.997 448.441C106.939 450.16 108.091 450.658 107.966 453.692C106.422 453.784 105.916 454.658 104.387 454.744C102.313 452.924 101.627 452.777 101.419 449.48Z" fill="white"/>
<path fill-rule="evenodd" clip-rule="evenodd" d="M105.14 478.839C108.76 476.815 112.458 481.687 109.64 483.591C106.215 483.855 104.82 481.513 105.14 478.839Z" fill="white"/>
<path fill-rule="evenodd" clip-rule="evenodd" d="M109.644 511.348C108.816 508.905 110.722 508.582 112.466 509.219C114.027 511.857 111.374 512.551 109.644 511.348Z" fill="white"/>
<path fill-rule="evenodd" clip-rule="evenodd" d="M72.0162 45.7411C74.8275 45.5485 77.4411 44.8303 79.7146 43.6255C83.5893 45.561 87.1016 48.2785 89.9311 51.5305C89.4229 54.042 89.3567 56.7046 89.7346 59.4277C87.5607 61.0047 83.3395 60.9936 81.1864 62.5911C73.7478 60.0553 69.1292 52.6227 72.0162 45.7411Z" fill="white"/>
<path fill-rule="evenodd" clip-rule="evenodd" d="M75.4198 76.1218C78.2746 75.2273 81.2326 74.5198 84.2761 74.0036C87.0548 75.8482 89.2464 78.4171 92.3725 79.8093C91.7453 82.4604 92.4507 86.1129 91.8768 88.791C89.2785 89.5025 86.6512 90.157 84.1152 90.9099C77.2642 88.2818 73.7399 83.1136 75.4198 76.1218Z" fill="white"/>
<path fill-rule="evenodd" clip-rule="evenodd" d="M69.2077 17.9722C71.3134 16.7707 74.5853 16.4548 76.783 15.3381C80.1986 16.9229 83.2784 19.3011 85.6597 22.1924C85.2923 24.578 85.1747 27.0435 85.3083 29.5579C83.2455 30.8034 79.2818 30.5701 77.7195 32.1987C72.1599 29.268 67.5334 24.799 69.2077 17.9722Z" fill="white"/>
<path fill-rule="evenodd" clip-rule="evenodd" d="M105.728 342.878C107.741 341.834 109.986 341.119 112.391 340.755C115.136 341.512 116.267 344.249 118.998 345C119.794 348.019 118.562 349.487 119.218 352.407C112.247 356.19 103.758 350.677 105.728 342.878Z" fill="white"/>
<path fill-rule="evenodd" clip-rule="evenodd" d="M99.6217 283.111C104.99 281.101 109.434 282.75 112.708 286.817C112.519 289.057 112.549 291.356 112.797 293.687C110.561 293.88 108.456 294.414 106.559 295.269C100.459 293.105 98.1013 288.839 99.6217 283.111Z" fill="white"/>
<path fill-rule="evenodd" clip-rule="evenodd" d="M102.99 312.975C105.329 312.246 107.779 311.722 110.315 311.409C111.742 313.223 113.654 314.699 115.782 315.632C115.609 318.033 115.8 320.743 115.446 323.009C112.601 323.103 111.323 324.361 108.678 324.608C106.408 323.408 104.537 321.513 103.472 319.334C102.407 317.156 102.234 314.871 102.99 312.975Z" fill="white"/>
<path fill-rule="evenodd" clip-rule="evenodd" d="M80.3414 112.913C80.6449 111.033 80.7104 109.077 80.5365 107.081C85.526 104.739 89.5723 106.094 93.017 110.245C93.1914 112.414 93.1753 114.551 92.9687 116.635C88.3555 119.282 83.2096 117.506 80.3414 112.913Z" fill="white"/>
<path fill-rule="evenodd" clip-rule="evenodd" d="M96.8074 254.843C98.2895 253.729 101.438 253.9 102.859 252.732C105.068 254.349 107.619 255.53 109.132 258.007C108.605 259.803 108.542 261.781 108.945 263.805C106.983 264.254 104.329 264.186 103.298 265.371C99.1006 263.249 95.7992 260.049 96.8074 254.843Z" fill="white"/>
<path fill-rule="evenodd" clip-rule="evenodd" d="M93.6261 225.515C94.9705 224.424 98.0849 224.69 99.1782 223.395C102.016 223.986 103.252 226.599 105.773 227.636C105.629 229.716 105.61 231.828 105.715 233.964C100.116 237.896 91.9148 232.781 93.6261 225.515Z" fill="white"/>
<path fill-rule="evenodd" clip-rule="evenodd" d="M90.8971 202.515C90.6151 200.183 90.5881 197.888 90.8166 195.663C92.316 194.976 95.1431 195.333 95.9286 194.084C98.1877 195.032 100.266 196.493 101.937 198.307C103.123 201.204 101.468 201.906 102.434 204.625C99.95 204.837 98.5615 205.892 96.2144 206.213C94.3676 205.092 93.116 203.204 90.8971 202.515Z" fill="white"/>
<path fill-rule="evenodd" clip-rule="evenodd" d="M68.4062 -3.96456C68.0918 -6.14134 68.1124 -8.27489 68.4674 -10.3004C70.2746 -10.6495 71.9904 -11.1879 73.5868 -11.9068C76.4314 -11.3104 77.6653 -8.68232 80.1842 -7.65608C79.9394 -5.59777 79.9212 -3.47352 80.1302 -1.31311C78.0259 -0.801285 76.0046 -0.239062 73.8844 0.270673C72.0698 -1.1552 70.2199 -2.53362 68.4062 -3.96456Z" fill="white"/>
<path fill-rule="evenodd" clip-rule="evenodd" d="M113.867 402.096C115.66 401.838 117.414 401.485 119.12 401.039C120.724 402.265 122.322 403.504 123.928 404.736C124.462 406.855 123.623 407.914 124.156 410.031C118.69 413.734 111.599 408.27 113.867 402.096Z" fill="white"/>
<path fill-rule="evenodd" clip-rule="evenodd" d="M111.145 372.222C111.95 372.352 112.736 372.326 113.453 372.148C114.17 371.969 114.803 371.642 115.311 371.186C117.554 372.252 119.063 374.301 121.319 375.395C120.61 376.674 121.448 379.17 120.995 380.657C119.235 381.413 117.334 381.947 115.329 382.248C114.302 381.79 113.349 381.134 112.547 380.333C111.745 379.532 111.116 378.607 110.709 377.634C110.303 376.66 110.131 375.663 110.206 374.724C110.282 373.785 110.604 372.928 111.145 372.222Z" fill="white"/>
<path fill-rule="evenodd" clip-rule="evenodd" d="M87.8269 166.815C89.7781 166.339 91.4114 165.613 93.5012 165.229C95.3687 166.353 96.625 168.242 98.8538 168.918C98.9038 171.104 98.7031 173.234 98.2549 175.275C92.1768 177.793 86.7577 173.124 87.8269 166.815Z" fill="white"/>
<path fill-rule="evenodd" clip-rule="evenodd" d="M121.861 462.916C123.026 462.201 124.452 461.839 125.996 461.865C126.918 462.639 127.646 463.591 128.099 464.616C128.551 465.64 128.711 466.696 128.561 467.666C124.614 468.773 121.789 467.076 121.861 462.916Z" fill="white"/>
<path fill-rule="evenodd" clip-rule="evenodd" d="M86.4997 138.508C87.5183 138.019 88.7728 137.913 90.0602 138.206C91.3476 138.498 92.5926 139.173 93.594 140.121C95.4769 146.899 84.9529 145.266 86.4997 138.508Z" fill="white"/>
<path fill-rule="evenodd" clip-rule="evenodd" d="M122.937 433.039C123.697 433.673 124.275 434.473 124.588 435.325C124.901 436.177 124.933 437.037 124.679 437.782C120.089 440.537 116.356 431.989 122.937 433.039Z" fill="white"/>
<path fill-rule="evenodd" clip-rule="evenodd" d="M126.821 492.759C128.634 492.331 129.322 493.352 130.431 493.836C131.411 497.861 125.283 496.188 126.821 492.759Z" fill="white"/>
<path fill-rule="evenodd" clip-rule="evenodd" d="M130.518 524.257C130.53 523.555 131.28 523.433 131.221 522.68C132.22 522.789 132.724 523.587 132.871 524.787C131.757 525.011 131.3 524.418 130.518 524.257Z" fill="white"/>
<path fill-rule="evenodd" clip-rule="evenodd" d="M91.924 59.6377C98.816 55.9462 105.003 58.823 110.157 63.862C110.043 67.0452 110.008 70.2916 109.813 73.4069C106.835 73.9497 104.196 74.7712 101.486 75.5295C94.2005 72.5442 90.3443 67.3954 91.924 59.6377Z" fill="white"/>
<path fill-rule="evenodd" clip-rule="evenodd" d="M88.7473 30.291C95.6384 26.6022 101.818 29.4594 106.977 34.5163C106.53 37.4424 106.874 40.9722 106.625 44.0406C103.745 44.5346 100.961 45.2432 98.2986 46.1604C90.9304 43.1124 87.3633 38.1975 88.7473 30.291Z" fill="white"/>
<path fill-rule="evenodd" clip-rule="evenodd" d="M95.8497 89.5458C99.1649 89.1313 101.491 87.9264 104.714 87.4306C107.496 89.2719 109.69 91.8545 112.8 93.2378C112.198 95.896 112.891 99.5498 112.319 102.233C109.72 102.92 107.099 103.597 104.564 104.34C97.5867 101.623 94.4623 96.7654 95.8497 89.5458Z" fill="white"/>
<path fill-rule="evenodd" clip-rule="evenodd" d="M87.4728 2.0312C93.0177 -0.550358 97.9278 1.19638 101.644 5.72382C102.3 8.63691 101.037 10.0941 101.857 13.1216C99.4495 13.4529 97.2095 14.1644 95.2224 15.2293C88.8142 12.7879 86.0051 8.43878 87.4728 2.0312Z" fill="white"/>
<path fill-rule="evenodd" clip-rule="evenodd" d="M123.441 326.457C125.545 325.871 127.581 325.164 129.54 324.338C131.985 325.88 134.285 327.658 136.387 329.631C137.096 332.444 136.132 333.962 136.453 336.498C129.72 341.018 119.818 333.374 123.441 326.457Z" fill="white"/>
<path fill-rule="evenodd" clip-rule="evenodd" d="M117.061 267.728C119.41 267.395 120.821 266.345 123.33 266.133C126.049 266.895 127.193 269.625 129.941 270.38C129.745 272.79 129.945 275.511 129.591 277.772C122.267 281.056 114.813 274.767 117.061 267.728Z" fill="white"/>
<path fill-rule="evenodd" clip-rule="evenodd" d="M113.713 237.818C119.176 235.844 124.071 237.429 127.005 242.064C125.869 243.487 127.291 246.864 126.399 248.437C118.7 251.751 111.618 245.16 113.713 237.818Z" fill="white"/>
<path fill-rule="evenodd" clip-rule="evenodd" d="M110.536 208.495C115.823 206.369 120.967 208.149 123.831 212.729C122.822 214.092 123.831 217.011 123.089 218.57C116.327 222.821 108.191 215.962 110.536 208.495Z" fill="white"/>
<path fill-rule="evenodd" clip-rule="evenodd" d="M107.461 179.193C109.73 179.09 111.843 178.545 113.673 177.59C116.159 178.871 117.884 181.074 120.369 182.337C120.064 184.582 119.906 186.874 119.898 189.201C117.86 189.422 115.95 189.953 114.234 190.776C108.62 188.793 106.668 184.777 107.461 179.193Z" fill="white"/>
<path fill-rule="evenodd" clip-rule="evenodd" d="M120.419 297.64C122.04 296.631 125.188 296.784 126.503 295.52C128.655 296.97 130.713 298.56 132.656 300.273C132.889 302.578 132.203 304.182 132.596 306.595C126.663 310.577 118.747 304.994 120.419 297.64Z" fill="white"/>
<path fill-rule="evenodd" clip-rule="evenodd" d="M131.229 386.714C136.319 383.539 142.741 388.487 140.81 394.111C135.359 396.668 130.028 392.567 131.229 386.714Z" fill="white"/>
<path fill-rule="evenodd" clip-rule="evenodd" d="M105.616 150.885C107.453 150.738 109.214 150.383 110.863 149.826C112.257 151.272 113.875 152.521 115.633 153.508C116.03 155.179 115.73 156.775 114.796 157.959C113.862 159.143 112.368 159.82 110.631 159.849C106.659 158.107 105.123 155.142 105.616 150.885Z" fill="white"/>
<path fill-rule="evenodd" clip-rule="evenodd" d="M102.404 121.592C107.512 118.76 113.715 123.562 111.978 128.997C106.976 131.872 101.027 127.294 102.404 121.592Z" fill="white"/>
<path fill-rule="evenodd" clip-rule="evenodd" d="M129.24 357.346C129.944 357.44 130.626 357.395 131.241 357.215C131.856 357.034 132.391 356.721 132.81 356.298C134.481 357.224 135.454 359.016 137.471 359.458C137.032 360.743 137.014 362.203 137.42 363.681C136.57 364.58 134.18 364.286 133.43 365.258C132.569 364.988 131.743 364.537 131.023 363.945C130.304 363.352 129.712 362.635 129.3 361.856C128.887 361.077 128.666 360.26 128.656 359.474C128.646 358.688 128.846 357.958 129.24 357.346Z" fill="white"/>
<path fill-rule="evenodd" clip-rule="evenodd" d="M139.1 447C140.272 446.272 141.719 445.91 143.285 445.953C150.76 451.359 138.437 455.419 139.1 447Z" fill="white"/>
<path fill-rule="evenodd" clip-rule="evenodd" d="M142.123 418.174C142.531 419.644 142.518 421.097 142.084 422.377C134.334 425.384 134.929 412.01 142.123 418.174Z" fill="white"/>
<path fill-rule="evenodd" clip-rule="evenodd" d="M143.398 476.354C144.265 476.306 145.586 476.612 145.488 475.818C154.091 480.12 140.557 483.672 143.398 476.354Z" fill="white"/>
<path fill-rule="evenodd" clip-rule="evenodd" d="M147.371 506.719C148.714 506.635 150.027 506.625 150.419 507.781C150.935 509.173 149.593 509.144 148.599 509.362C148.227 508.981 147.925 508.55 147.714 508.096C147.503 507.641 147.386 507.173 147.371 506.719Z" fill="white"/>
<path fill-rule="evenodd" clip-rule="evenodd" d="M112.326 73.1286C115.152 72.0824 118.074 71.1931 121.078 70.4645C125.101 71.9274 127.479 75.4468 131.15 77.3471C130.733 80.4492 130.608 83.6404 130.776 86.8884C128.33 88.1265 124.532 88.3482 122.023 89.5376C118.014 88.0794 115.641 84.5586 111.971 82.6421C112.191 79.5573 112.179 76.2778 112.326 73.1286Z" fill="white"/>
<path fill-rule="evenodd" clip-rule="evenodd" d="M109.854 44.278C110.953 43.4311 112.3 42.8656 113.802 42.6203C115.304 42.3751 116.925 42.4558 118.555 42.8571C120.184 43.2584 121.783 43.9708 123.242 44.9452C124.701 45.9197 125.986 47.1331 127.007 48.5025C126.744 51.27 126.727 54.1056 126.956 56.9831C118.313 62.6012 106.35 53.9813 109.854 44.278Z" fill="white"/>
<path fill-rule="evenodd" clip-rule="evenodd" d="M106.812 15.4635C111.701 11.5377 119.03 13.1272 123.056 18.6335C123.267 21.6629 123.287 24.6591 123.115 27.6069C119.44 27.7441 117.697 29.3799 114.266 29.7238C109.42 26.2737 105.088 21.9861 106.812 15.4635Z" fill="white"/>
<path fill-rule="evenodd" clip-rule="evenodd" d="M133.458 250.736C134.487 250.029 135.733 249.591 137.106 249.453C138.479 249.315 139.944 249.482 141.391 249.94C142.838 250.397 144.231 251.135 145.468 252.099C146.704 253.062 147.752 254.226 148.534 255.506C147.573 257.177 148.551 260.35 148.065 262.39C139.942 267.167 129.926 258.97 133.458 250.736Z" fill="white"/>
<path fill-rule="evenodd" clip-rule="evenodd" d="M130.453 221.962C132.585 221.13 134.798 220.428 137.081 219.86C140.103 220.886 142.109 223.223 144.45 225.125C144.96 227.92 144.351 229.859 144.672 232.515C142.349 233.007 140.128 233.707 138.037 234.607C131.961 232.195 128.723 228.084 130.453 221.962Z" fill="white"/>
<path fill-rule="evenodd" clip-rule="evenodd" d="M137.396 280.671C139.695 280.659 141.822 280.114 143.595 279.08C146.036 280.615 148.33 282.388 150.426 284.359C150.874 286.963 149.91 288.497 150.493 291.2C148.28 291.422 146.19 291.955 144.287 292.782C138.062 290.496 136.237 286.645 137.396 280.671Z" fill="white"/>
<path fill-rule="evenodd" clip-rule="evenodd" d="M127.461 193.179C128.927 191.761 132.438 191.917 133.951 190.541C136.398 192.072 138.697 193.846 140.794 195.819C141.765 198.965 140.652 200.527 140.993 203.192C133.706 206.745 125.51 201.006 127.461 193.179Z" fill="white"/>
<path fill-rule="evenodd" clip-rule="evenodd" d="M124.131 163.293C126.617 162.437 129.19 161.731 131.837 161.179C133.244 163.004 135.156 164.486 137.287 165.401C138.586 169.106 137.45 170.908 137.749 173.809C135.451 173.814 133.325 174.356 131.553 175.388C126.149 172.855 122.978 169.453 124.131 163.293Z" fill="white"/>
<path fill-rule="evenodd" clip-rule="evenodd" d="M140.712 317.411C140.861 315.107 140.844 312.679 141.192 310.497C143.128 310.413 144.897 309.873 146.345 308.925C149.455 309.68 150.925 312.5 153.686 313.69C153.371 315.945 153.209 318.248 153.201 320.587C148.058 322.748 144.286 320.593 140.712 317.411Z" fill="white"/>
<path fill-rule="evenodd" clip-rule="evenodd" d="M105.432 -13.3442C110.331 -15.7883 115.062 -14.4894 118.439 -10.164C118.673 -7.70831 118.27 -5.75026 118.505 -3.28612C111.859 1.21224 102.629 -5.90284 105.432 -13.3442Z" fill="white"/>
<path fill-rule="evenodd" clip-rule="evenodd" d="M118.474 105.124C120.052 104.069 122.839 103.969 124.541 103.012C126.747 104.373 128.812 105.969 130.681 107.755C130.743 109.929 130.765 112.078 130.626 114.086C128.534 114.594 126.527 115.159 124.428 115.658C122.291 114.675 120.466 113.017 119.351 111.043C118.236 109.07 117.921 106.943 118.474 105.124Z" fill="white"/>
<path fill-rule="evenodd" clip-rule="evenodd" d="M146.412 341.413C150.064 340.002 152.045 342.006 154.765 343.519C154.18 344.795 154.728 346.929 154.299 348.32C148.892 350.481 144.155 345.621 146.412 341.413Z" fill="white"/>
<path fill-rule="evenodd" clip-rule="evenodd" d="M123.555 135.509C125.184 135.266 126.762 134.905 128.277 134.43C129.459 135.714 130.872 136.808 132.421 137.635C131.835 138.893 132.375 141.01 131.956 142.397C126.34 144.037 122.615 140.591 123.555 135.509Z" fill="white"/>
<path fill-rule="evenodd" clip-rule="evenodd" d="M149.724 371.307C150.222 370.958 150.814 370.722 151.469 370.614C152.123 370.505 152.825 370.526 153.536 370.675C154.247 370.824 154.952 371.098 155.611 371.482C156.27 371.865 156.87 372.351 157.376 372.911C159.957 380.984 146.627 378.074 149.724 371.307Z" fill="white"/>
<path fill-rule="evenodd" clip-rule="evenodd" d="M159.509 460.389C159.924 460.021 160.439 459.757 161.022 459.611C161.605 459.465 162.243 459.442 162.898 459.542C163.553 459.642 164.211 459.863 164.831 460.192C165.451 460.521 166.021 460.951 166.505 461.456C168.099 467.322 158.532 466.502 159.509 460.389Z" fill="white"/>
<path fill-rule="evenodd" clip-rule="evenodd" d="M163.285 432.107C162.869 434.546 163.353 436.087 161.029 436.341C154.152 437.082 156.135 425 163.285 432.107Z" fill="white"/>
<path fill-rule="evenodd" clip-rule="evenodd" d="M153.083 401.201C155.1 401.338 155.51 400.218 157.242 400.14C157.456 400.674 157.838 401.17 158.333 401.551C158.828 401.933 159.407 402.181 159.985 402.257C160.601 404.158 159.597 404.805 159.953 406.491C156.175 408.03 152.537 405.237 153.083 401.201Z" fill="white"/>
<path fill-rule="evenodd" clip-rule="evenodd" d="M163.989 490.311C164.629 490.408 164.916 490.199 164.951 489.786C167.745 489.385 168.623 492.145 168.154 493.964C165.29 494.631 164.245 492.991 163.989 490.311Z" fill="white"/>
<path fill-rule="evenodd" clip-rule="evenodd" d="M168.191 521.775C168.225 521.071 168.963 520.949 168.896 520.194C169.91 520.305 170.405 521.106 170.536 522.306C169.449 522.527 168.988 521.938 168.191 521.775Z" fill="white"/>
<path fill-rule="evenodd" clip-rule="evenodd" d="M153.413 264.216C155.959 263.819 158.364 263.11 160.575 262.106C163.558 263.555 166.311 265.537 168.64 267.912C169.288 270.955 168.349 272.763 168.972 275.808C166.512 276.374 164.121 277.076 161.809 277.911C155.168 275.023 152.085 271.303 153.413 264.216Z" fill="white"/>
<path fill-rule="evenodd" clip-rule="evenodd" d="M143.765 175.677C146.593 175.493 149.223 174.78 151.512 173.577C154.188 175.284 156.715 177.23 159.043 179.377C159.904 182.596 158.988 184.437 159.386 187.304C151.47 192.736 140.691 185.039 143.765 175.677Z" fill="white"/>
<path fill-rule="evenodd" clip-rule="evenodd" d="M130.942 57.7521C133.525 57.4434 135.939 56.7305 138.092 55.6402C141.289 57.2732 144.252 59.417 146.81 61.9489C146.95 64.7954 146.929 67.6115 146.747 70.386C143.98 70.6833 141.379 71.3896 139.032 72.481C132.984 69.6028 128.694 64.2535 130.942 57.7521Z" fill="white"/>
<path fill-rule="evenodd" clip-rule="evenodd" d="M127.74 28.4008C130.252 27.9379 132.651 27.2316 134.901 26.2921C138.099 27.9238 141.061 30.0673 143.619 32.5995C143.811 35.5706 143.532 38.1932 143.546 41.02C140.949 41.3117 138.528 42.0256 136.38 43.1326C134.781 42.6357 133.24 41.8181 131.879 40.744C130.519 39.6699 129.375 38.3684 128.539 36.9415C127.702 35.5146 127.194 34.001 127.055 32.5193C126.917 31.0376 127.151 29.628 127.74 28.4008Z" fill="white"/>
<path fill-rule="evenodd" clip-rule="evenodd" d="M150.8 234.879C153.141 234.408 155.367 233.7 157.443 232.765C160.431 234.224 163.191 236.205 165.536 238.574C165.83 241.504 165.271 243.769 165.314 246.494C157.196 251.32 147.306 243.048 150.8 234.879Z" fill="white"/>
<path fill-rule="evenodd" clip-rule="evenodd" d="M147.539 205.464C153.06 202.747 159.158 204.422 162.457 209.7C162.124 211.945 161.959 214.243 161.963 216.58C160.085 217.524 157.111 217.67 155.308 218.68C148.962 216.307 145.828 211.696 147.539 205.464Z" fill="white"/>
<path fill-rule="evenodd" clip-rule="evenodd" d="M135.451 88.1278C137.588 87.7144 139.67 87.1831 141.687 86.5364C144.756 87.2947 146.212 90.0974 148.958 91.3026C148.706 93.6545 149.038 96.4684 148.626 98.697C146.49 99.1148 144.406 99.6439 142.383 100.282C136.394 98.1971 133.738 93.7087 135.451 88.1278Z" fill="white"/>
<path fill-rule="evenodd" clip-rule="evenodd" d="M125.849 0.0974546C130.415 -2.55787 135.603 -0.896146 138.776 3.24657C139.146 5.5916 139.173 7.89678 138.856 10.0986C136.757 10.6907 134.721 11.396 132.756 12.2115C127.072 9.70728 124.079 5.87963 125.849 0.0974546Z" fill="white"/>
<path fill-rule="evenodd" clip-rule="evenodd" d="M158.574 301.499C157.598 298.768 159.258 298.067 158.071 295.165C159.22 293.917 162.903 294.639 163.611 293.046C166.437 293.91 168.204 296.075 170.325 297.804C170.558 299.965 170.539 302.087 170.27 304.135C166.133 306.448 161.521 305.515 158.574 301.499Z" fill="white"/>
<path fill-rule="evenodd" clip-rule="evenodd" d="M142.58 154.235C141.381 151.311 143.048 150.61 142.072 147.878C144.182 147.292 146.228 146.59 148.2 145.775C150.687 147.036 152.431 149.261 154.935 150.529C154.317 152.323 154.948 155.074 154.325 156.877C153.607 157.501 152.706 157.931 151.686 158.136C150.667 158.342 149.555 158.317 148.431 158.065C147.308 157.812 146.2 157.337 145.188 156.675C144.176 156.013 143.285 155.179 142.58 154.235Z" fill="white"/>
<path fill-rule="evenodd" clip-rule="evenodd" d="M162.573 325.503C163.176 324.974 163.933 324.607 164.789 324.426C165.646 324.246 166.581 324.257 167.528 324.46C168.476 324.662 169.413 325.05 170.274 325.597C171.134 326.143 171.897 326.835 172.508 327.623C172.309 329.321 172.475 331.306 172.167 332.898C169.548 332.583 169.295 334.099 166.909 333.977C163.881 331.263 161.918 329.979 162.573 325.503Z" fill="white"/>
<path fill-rule="evenodd" clip-rule="evenodd" d="M177.06 443.459C181.338 441.982 184.572 445.033 184.05 449.255C179.745 451.882 174.8 447.494 177.06 443.459Z" fill="white"/>
<path fill-rule="evenodd" clip-rule="evenodd" d="M173.89 414.129C179.72 411.202 183.723 421.063 177.251 420.946C176.515 420.702 175.813 420.302 175.207 419.782C174.601 419.261 174.11 418.636 173.778 417.962C173.445 417.287 173.281 416.585 173.301 415.916C173.32 415.248 173.523 414.634 173.89 414.129Z" fill="white"/>
<path fill-rule="evenodd" clip-rule="evenodd" d="M141.324 119.601C145.612 117.787 150.205 120.708 149.422 125.402C146.014 129.063 139.279 124.491 141.324 119.601Z" fill="white"/>
<path fill-rule="evenodd" clip-rule="evenodd" d="M170.875 385.262C172.905 385.677 172.811 384.462 174.62 384.716C175.324 385.636 176.289 386.38 177.365 386.833C177.192 387.99 176.387 388.653 177.189 390.541C173.325 391.93 170.17 389.117 170.875 385.262Z" fill="white"/>
<path fill-rule="evenodd" clip-rule="evenodd" d="M167.671 355.934C171.113 354.282 174.64 357.005 173.841 360.696C172.548 361.176 171.087 361.356 169.559 361.224C168.769 360.481 168.174 359.591 167.84 358.656C167.506 357.72 167.447 356.777 167.671 355.934Z" fill="white"/>
<path fill-rule="evenodd" clip-rule="evenodd" d="M181.065 473.851C183.865 473.23 185.456 473.725 186.28 477.022C185.141 480.213 179.679 477.424 181.065 473.851Z" fill="white"/>
<path fill-rule="evenodd" clip-rule="evenodd" d="M184.885 505.828C184.389 504.174 185.833 504.024 187.095 503.725C188.837 504.76 188.561 506.422 187.479 507.407C186.126 507.503 185.553 506.596 184.885 505.828Z" fill="white"/>
<path fill-rule="evenodd" clip-rule="evenodd" d="M170.544 247.762C173.131 247.456 175.548 246.746 177.705 245.657C180.907 247.296 183.876 249.443 186.443 251.976C187.051 255.002 186.129 256.842 186.781 259.871C184.826 261.201 181.119 261.17 179.197 262.507C177.596 262.009 176.054 261.19 174.693 260.115C173.332 259.04 172.187 257.738 171.349 256.31C170.511 254.882 170.003 253.368 169.863 251.885C169.724 250.402 169.957 248.991 170.544 247.762Z" fill="white"/>
<path fill-rule="evenodd" clip-rule="evenodd" d="M167.372 218.425C169.976 218.123 172.408 217.408 174.572 216.308C177.792 217.952 180.774 220.111 183.347 222.66C183.214 225.253 183.5 228.157 183.126 230.573C175.032 236.237 163.954 227.694 167.372 218.425Z" fill="white"/>
<path fill-rule="evenodd" clip-rule="evenodd" d="M164.367 190.083C169.025 186.683 176.031 188.295 179.552 193.258C179.204 195.535 179.39 198.25 179.212 200.66C176.923 201.244 174.699 201.953 172.553 202.785C166.421 200.147 163.686 196.972 164.367 190.083Z" fill="white"/>
<path fill-rule="evenodd" clip-rule="evenodd" d="M161.069 159.751C163.886 159.574 166.503 158.858 168.769 157.642C171.434 159.352 173.948 161.299 176.266 163.446C177.136 166.651 176.225 168.49 176.603 171.33C174.189 172.308 171.606 173.015 168.897 173.437C162.775 170.979 160.241 166.333 161.069 159.751Z" fill="white"/>
<path fill-rule="evenodd" clip-rule="evenodd" d="M152.029 71.6638C155.387 71.7155 156.45 69.9863 159.918 70.0853C162.238 71.5776 163.947 73.7966 166.623 74.8388C167.042 77.9991 166.148 80.1486 166.553 83.3067C164.188 83.6062 161.916 84.134 159.772 84.8826C153.293 82.3829 150.677 78.1972 152.029 71.6638Z" fill="white"/>
<path fill-rule="evenodd" clip-rule="evenodd" d="M174.566 278.151C176.851 277.577 179.065 276.869 181.198 276.032C184.493 276.965 186.173 279.939 189.127 281.297C188.725 283.847 188.657 286.504 188.925 289.214C186.546 289.477 184.275 290.008 182.156 290.799C176.43 288.919 173.142 283.945 174.566 278.151Z" fill="white"/>
<path fill-rule="evenodd" clip-rule="evenodd" d="M149.538 42.8842C151.743 42.6571 153.826 42.1242 155.726 41.3013C158.517 42.1501 160.293 44.3204 162.408 46.0392C163.374 49.1871 162.268 50.7471 162.621 53.4052C159.687 53.4015 158.403 54.6777 155.874 54.9809C151.029 52.478 148.19 48.3114 149.538 42.8842Z" fill="white"/>
<path fill-rule="evenodd" clip-rule="evenodd" d="M146.296 13.5109C151.28 11.1757 155.827 12.3593 159.208 16.6808C160.182 19.8352 159.068 21.3874 159.424 24.0607C157.12 24.0699 154.987 24.6121 153.205 25.6413C151.934 25.1535 150.728 24.4347 149.669 23.5338C148.61 22.6329 147.723 21.571 147.067 20.4201C146.412 19.2693 146.004 18.0566 145.871 16.8644C145.738 15.6722 145.883 14.5284 146.296 13.5109Z" fill="white"/>
<path fill-rule="evenodd" clip-rule="evenodd" d="M178.928 314.897C179.132 312.829 179.153 310.71 178.991 308.559C180.99 308.239 182.896 307.709 184.675 306.979C186.921 308.061 188.431 310.098 190.707 311.194C190.557 313.28 190.541 315.401 190.661 317.546C188.682 318.016 186.006 317.932 184.976 319.141C182.862 317.832 181.382 315.746 178.928 314.897Z" fill="white"/>
<path fill-rule="evenodd" clip-rule="evenodd" d="M160.517 132.505C165.771 129.64 172.251 134.06 170.618 139.879C168.859 140.626 166.963 141.158 164.967 141.465C161.459 139.255 159.991 136.794 160.517 132.505Z" fill="white"/>
<path fill-rule="evenodd" clip-rule="evenodd" d="M157.502 103.702C165.598 97.5381 171.628 112.353 162.774 111.602C158.901 111.268 157.249 107.965 157.502 103.702Z" fill="white"/>
<path fill-rule="evenodd" clip-rule="evenodd" d="M191.133 398.164C195.71 396.09 200.143 401.385 198.149 403.988C197.516 404.684 196.542 405.046 195.442 404.994C194.342 404.943 193.204 404.482 192.277 403.712C191.349 402.943 190.709 401.927 190.494 400.888C190.28 399.848 190.51 398.869 191.133 398.164Z" fill="white"/>
<path fill-rule="evenodd" clip-rule="evenodd" d="M184.218 339.472C187.833 336.843 193.178 340.371 192.33 345.298C188.463 348.262 182.112 344.017 184.218 339.472Z" fill="white"/>
<path fill-rule="evenodd" clip-rule="evenodd" d="M194.377 427.559C194.833 427.215 195.408 427.012 196.046 426.971C196.684 426.93 197.363 427.052 198.015 427.325C198.668 427.597 199.272 428.012 199.769 428.527C200.265 429.042 200.637 429.64 200.847 430.262C201.057 430.884 201.099 431.509 200.967 432.076C200.836 432.642 200.537 433.131 200.098 433.493C199.66 433.855 199.098 434.079 198.468 434.142C197.838 434.205 197.16 434.106 196.503 433.853C195.474 433.019 194.704 431.942 194.318 430.798C193.931 429.655 193.952 428.512 194.377 427.559Z" fill="white"/>
<path fill-rule="evenodd" clip-rule="evenodd" d="M197.753 457.925C199.567 458.184 199.47 456.981 201.497 457.419C203.431 458.889 203.587 459.48 203.79 462.15C200.98 464.133 197.214 461.735 197.753 457.925Z" fill="white"/>
<path fill-rule="evenodd" clip-rule="evenodd" d="M188.12 369.337C190.156 369.755 190.044 368.528 191.894 368.804C192.608 369.72 193.574 370.465 194.649 370.928C194.623 372.048 193.65 372.445 194.353 374.109C191.104 375.963 187.154 372.931 188.12 369.337Z" fill="white"/>
<path fill-rule="evenodd" clip-rule="evenodd" d="M204.837 487.245C204.863 488.165 205.519 488.262 206.22 488.321C207.028 489.948 205.645 489.864 206.463 491.482C201.36 493.013 199.688 486.46 204.837 487.245Z" fill="white"/>
<path fill-rule="evenodd" clip-rule="evenodd" d="M191.503 261.17C194.986 261.318 196.079 259.601 199.395 259.586C201.902 261.526 204.435 263.467 206.96 265.414C206.939 268.236 206.897 271.049 206.874 273.872C197.345 278.609 187.596 269.88 191.503 261.17Z" fill="white"/>
<path fill-rule="evenodd" clip-rule="evenodd" d="M187.807 231.85C190.431 231.633 192.86 230.915 194.956 229.738C198.156 231.375 201.121 233.523 203.681 236.059C204.362 239.13 202.961 240.581 204.01 243.946C201.793 245.068 198.302 245.177 196.463 246.59C189.675 243.986 186.096 238.783 187.807 231.85Z" fill="white"/>
<path fill-rule="evenodd" clip-rule="evenodd" d="M181.457 173.151C184.085 172.934 186.519 172.221 188.626 171.053C192.047 172.626 195.132 175.004 197.509 177.899C197.142 180.283 197.024 182.748 197.159 185.262C194.616 185.67 192.21 186.38 189.991 187.375C183.161 184.564 180.103 180.314 181.457 173.151Z" fill="white"/>
<path fill-rule="evenodd" clip-rule="evenodd" d="M169.151 55.2361C172.714 55.4257 173.818 53.7328 177.018 53.6477C179.523 55.5907 182.041 57.509 184.556 59.4454C184.447 62.0592 184.218 64.5707 184.347 67.3792C182.189 68.2623 179.069 68.4252 177.158 69.4831C170.154 66.7556 167.038 61.9026 169.151 55.2361Z" fill="white"/>
<path fill-rule="evenodd" clip-rule="evenodd" d="M185.169 202.502C188.718 202.71 189.811 201.003 193.002 200.922C195.303 202.393 197.033 204.624 199.685 205.654C201.016 209.373 199.678 211.018 200.163 214.087C198.293 215.463 194.78 215.572 192.574 216.708C186.57 214.088 183.236 208.624 185.169 202.502Z" fill="white"/>
<path fill-rule="evenodd" clip-rule="evenodd" d="M178.818 143.789C182.378 143.999 183.473 142.305 186.673 142.228C188.977 143.692 190.707 145.918 193.374 146.964C194.116 150.097 193.18 151.905 193.711 154.867C192.004 156.245 188.7 156.384 186.671 157.504C180.116 155.15 177.296 150.244 178.818 143.789Z" fill="white"/>
<path fill-rule="evenodd" clip-rule="evenodd" d="M195.564 292.088C200.186 289.455 205.298 291.055 208.509 295.25C208.755 297.702 208.367 299.676 208.599 302.123C205.648 302.111 204.377 303.397 201.814 303.701C196.971 301.004 194.524 297.706 195.564 292.088Z" fill="white"/>
<path fill-rule="evenodd" clip-rule="evenodd" d="M167.291 26.9454C168.174 26.434 169.206 26.1239 170.325 26.0338C171.443 25.9438 172.625 26.0757 173.799 26.4215C174.973 26.7672 176.114 27.3197 177.155 28.0457C178.195 28.7716 179.112 29.656 179.852 30.6454C179.699 32.648 179.738 34.824 179.806 37.0114C172.7 41.495 163.943 34.1227 167.291 26.9454Z" fill="white"/>
<path fill-rule="evenodd" clip-rule="evenodd" d="M163.635 -2.37057C165.938 -2.37425 168.068 -2.92178 169.836 -3.96487C172.273 -2.43391 174.563 -0.664501 176.653 1.30271C176.452 3.36405 176.435 5.47667 176.601 7.62083C174.58 7.86265 172.68 8.39483 170.961 9.20048C165.172 6.85697 163.014 3.86368 163.635 -2.37057Z" fill="white"/>
<path fill-rule="evenodd" clip-rule="evenodd" d="M174.542 86.7279C176.031 86.0461 178.852 86.4018 179.619 85.1497C181.596 86.3225 183.431 87.7453 185.054 89.3644C185.698 91.6912 184.295 92.4417 185.42 95.1391C183.277 95.4908 181.21 96.0116 179.238 96.6968C175.635 93.908 173.206 91.3529 174.542 86.7279Z" fill="white"/>
<path fill-rule="evenodd" clip-rule="evenodd" d="M200.257 323.034C204.652 319.371 212.066 323.894 210.236 329.882C208.46 330.607 206.566 331.145 204.583 331.487C201.559 328.783 199.603 327.505 200.257 323.034Z" fill="white"/>
<path fill-rule="evenodd" clip-rule="evenodd" d="M210.899 411.086C215.954 409.047 220.746 413.305 219.244 417.947C217.594 418.5 215.833 418.853 213.995 418.998C212.525 418.088 211.373 416.743 210.793 415.26C210.212 413.777 210.251 412.276 210.899 411.086Z" fill="white"/>
<path fill-rule="evenodd" clip-rule="evenodd" d="M214.258 440.989C214.961 441.077 215.641 441.03 216.256 440.848C216.871 440.667 217.407 440.357 217.83 439.936C220.781 441.405 222.331 442.947 222.272 446.766C218.477 450.064 212.617 446.137 214.258 440.989Z" fill="white"/>
<path fill-rule="evenodd" clip-rule="evenodd" d="M211.084 381.735C212.6 382.121 213.242 383.636 214.898 383.845C215.527 385.738 214.521 386.377 214.866 388.051C209.093 390.513 206.158 382.864 211.084 381.735Z" fill="white"/>
<path fill-rule="evenodd" clip-rule="evenodd" d="M179.33 118.192C180.137 117.395 182.273 117.638 182.788 116.614C184.038 117.108 184.44 118.693 186.056 118.719C186.995 120.708 186.03 121.233 186.57 122.921C183.285 125.143 178.671 122.765 179.33 118.192Z" fill="white"/>
<path fill-rule="evenodd" clip-rule="evenodd" d="M224.8 475.57C220.086 479.626 215.237 471.05 220.175 470.296C222.543 469.926 225.171 472.281 224.8 475.57Z" fill="white"/>
<path fill-rule="evenodd" clip-rule="evenodd" d="M205.427 353.444C206.959 353.366 207.477 352.482 209.007 352.388C209.213 352.921 209.591 353.415 210.082 353.796C210.573 354.176 211.15 354.421 211.723 354.493C212.358 356.398 211.353 357.035 211.696 358.717C207.85 360.08 204.733 357.276 205.427 353.444Z" fill="white"/>
<path fill-rule="evenodd" clip-rule="evenodd" d="M222.692 503.867C222.587 503.517 222.557 503.168 222.607 502.841C222.656 502.514 222.783 502.217 222.979 501.97C223.175 501.722 223.436 501.529 223.745 501.404C224.054 501.278 224.405 501.222 224.774 501.24C225.211 501.525 225.567 501.917 225.79 502.355C226.013 502.794 226.091 503.256 226.01 503.671C225.93 504.087 225.697 504.434 225.346 504.659C224.994 504.885 224.544 504.977 224.063 504.922C224.022 504.019 223.378 503.939 222.692 503.867Z" fill="white"/>
<path fill-rule="evenodd" clip-rule="evenodd" d="M208.715 245.224C215.033 242.547 220.016 244.625 224.166 249.461C224.042 252.062 224.32 254.986 223.967 257.387C221.884 258.351 219.013 258.707 216.754 259.507C209.738 256.781 206.603 251.905 208.715 245.224Z" fill="white"/>
<path fill-rule="evenodd" clip-rule="evenodd" d="M205.051 215.896C207.721 215.266 210.286 214.55 212.775 213.781C216.2 215.36 219.286 217.743 221.662 220.644C221.022 223.118 220.948 225.802 221.443 228.549C218.661 228.817 216.057 229.532 213.734 230.665C207.077 228.184 203.056 222.636 205.051 215.896Z" fill="white"/>
<path fill-rule="evenodd" clip-rule="evenodd" d="M202.564 187.111C204.355 186.092 207.64 186.218 209.18 185.001C212.164 186.453 214.919 188.435 217.252 190.81C217.906 193.705 216.744 195.218 217.458 198.178C215.024 198.853 212.705 199.617 210.289 200.291C203.972 197.91 200.946 193.417 202.564 187.111Z" fill="white"/>
<path fill-rule="evenodd" clip-rule="evenodd" d="M198.752 157.245C201.34 156.934 203.757 156.219 205.914 155.127C209.342 156.701 212.431 159.082 214.81 161.982C214.36 164.349 214.248 166.83 214.474 169.37C211.025 169.55 209.743 171.387 205.513 170.958C200.452 167.548 197.786 163.674 198.752 157.245Z" fill="white"/>
<path fill-rule="evenodd" clip-rule="evenodd" d="M212.242 275.668C214.133 274.706 217.463 274.864 218.858 273.553C222.052 274.947 224.925 277.157 227.077 279.874C226.617 282.069 226.458 284.371 226.602 286.732C224.226 286.996 221.957 287.526 219.838 288.312C213.956 286.311 211.062 281.639 212.242 275.668Z" fill="white"/>
<path fill-rule="evenodd" clip-rule="evenodd" d="M186.805 40.9272C188.121 39.3915 191.739 39.6483 193.267 38.2914C196.317 39.3138 198.298 41.6599 200.626 43.5518C201.147 46.3522 200.546 48.2834 200.84 50.9139C198.452 51.2579 196.227 51.9706 194.247 53.0264C189.234 50.1672 185.403 47.1005 186.805 40.9272Z" fill="white"/>
<path fill-rule="evenodd" clip-rule="evenodd" d="M185.293 11.5928C186.793 10.8954 189.622 11.252 190.407 10.0116C192.633 11.3619 194.713 12.9612 196.584 14.7616C196.694 16.8306 196.395 18.5767 196.398 20.5797C190.303 24.7616 181.904 17.7294 185.293 11.5928Z" fill="white"/>
<path fill-rule="evenodd" clip-rule="evenodd" d="M226.975 394.645C228.476 393.963 231.301 394.301 232.075 393.051C234.073 394.227 235.927 395.654 237.568 397.281C238.255 399.509 236.845 400.117 237.807 402.572C232.398 406.5 224.576 401.035 226.975 394.645Z" fill="white"/>
<path fill-rule="evenodd" clip-rule="evenodd" d="M217.326 306.056C218.903 305.442 221.314 305.47 222.41 304.485C224.675 305.568 226.157 307.588 228.411 308.678C228.272 310.755 228.255 312.864 228.359 314.997C226.232 314.989 224.282 315.536 222.719 316.58C221.653 316.105 220.656 315.443 219.793 314.638C218.93 313.833 218.221 312.903 217.712 311.909C217.203 310.915 216.905 309.88 216.838 308.871C216.772 307.863 216.938 306.903 217.326 306.056Z" fill="white"/>
<path fill-rule="evenodd" clip-rule="evenodd" d="M198.145 129.47C199.653 128.792 202.482 129.133 203.262 127.883C205.551 128.985 207.049 131.045 209.31 132.131C208.959 134.155 208.94 136.287 209.252 138.461C202.652 141.613 195.7 135.674 198.145 129.47Z" fill="white"/>
<path fill-rule="evenodd" clip-rule="evenodd" d="M191.717 70.7761C193.017 69.7687 194.816 69.3719 196.742 69.6681C198.668 69.9642 200.572 70.9306 202.061 72.3669C203.365 75.4905 202.234 76.7447 202.698 79.2229C196.995 83.2805 189.04 77.147 191.717 70.7761Z" fill="white"/>
<path fill-rule="evenodd" clip-rule="evenodd" d="M230.755 424.489C235.705 421.513 242.009 426.389 240.387 431.909C234.709 434.818 228.451 430 230.755 424.489Z" fill="white"/>
<path fill-rule="evenodd" clip-rule="evenodd" d="M234.694 454.396C235.398 454.494 236.081 454.451 236.697 454.272C237.313 454.092 237.848 453.78 238.266 453.355C239.033 453.658 239.762 454.091 240.411 454.628C241.06 455.165 241.614 455.796 242.043 456.482C242.471 457.168 242.763 457.897 242.904 458.624C243.044 459.352 243.028 460.064 242.859 460.718C238.012 463.057 233.44 459.537 234.694 454.396Z" fill="white"/>
<path fill-rule="evenodd" clip-rule="evenodd" d="M221.934 337.002C223.41 336.735 224.587 336.24 226.075 335.97C227.356 336.567 228.459 337.549 229.164 338.722C229.869 339.894 230.124 341.171 229.879 342.299C229.341 343.11 228.422 343.61 227.32 343.693C226.217 343.776 225.018 343.435 223.98 342.743C222.942 342.05 222.146 341.062 221.764 339.989C221.381 338.916 221.442 337.844 221.934 337.002Z" fill="white"/>
<path fill-rule="evenodd" clip-rule="evenodd" d="M239.446 487.933C238.471 486.397 238.241 484.058 241.265 484.247C248.125 484.66 243.104 493.816 239.446 487.933Z" fill="white"/>
<path fill-rule="evenodd" clip-rule="evenodd" d="M226.36 366.879C228.133 367.26 228.228 366.337 229.515 366.349C229.754 366.709 230.062 367.037 230.419 367.31C230.775 367.583 231.173 367.796 231.586 367.935C232.486 369.759 231.263 369.958 231.957 371.622C228.585 373.7 224.399 369.784 226.36 366.879Z" fill="white"/>
<path fill-rule="evenodd" clip-rule="evenodd" d="M196.983 101.74C202.487 98.7971 207.068 108.421 199.536 107.53C198.524 106.823 197.722 105.868 197.259 104.818C196.796 103.767 196.699 102.683 196.983 101.74Z" fill="white"/>
<path fill-rule="evenodd" clip-rule="evenodd" d="M244.326 517.31C243.807 515.915 243.942 515.035 245.435 515.196C246.052 515.805 246.44 516.563 246.518 517.31C245.8 517.309 245.045 517.31 244.326 517.31Z" fill="white"/>
<path fill-rule="evenodd" clip-rule="evenodd" d="M226.166 229.858C228.64 228.966 231.224 228.26 233.899 227.745C236.449 229.391 238.622 231.522 241.304 233.02C241.475 235.986 241.193 238.615 241.206 241.46C238.739 242.027 236.343 242.734 234.028 243.576C227.75 241.415 224.12 235.89 226.166 229.858Z" fill="white"/>
<path fill-rule="evenodd" clip-rule="evenodd" d="M222.988 200.548C225.27 199.619 228.195 199.188 230.716 198.438C233.03 199.904 234.745 202.145 237.43 203.179C238.874 207.126 237.368 208.81 238.025 212.135C234.669 212.392 233.055 213.979 229.056 213.722C226.516 212.323 224.449 210.15 223.311 207.68C222.174 205.209 222.057 202.644 222.988 200.548Z" fill="white"/>
<path fill-rule="evenodd" clip-rule="evenodd" d="M229.986 259.75C232.693 259.399 234.448 258.35 237.332 258.155C239.435 259.714 241.319 261.515 243.521 262.93C244.187 265.834 242.943 267.297 243.726 270.317C235.935 274.573 227.058 267.747 229.986 259.75Z" fill="white"/>
<path fill-rule="evenodd" clip-rule="evenodd" d="M220.06 179.149C220.143 176.645 220.339 174.258 220.407 171.748C222.028 170.722 224.89 170.651 226.514 169.629C229.57 170.647 231.563 172.995 233.925 174.902C234.592 177.829 233.345 179.287 234.131 182.317C231.585 182.631 229.126 183.161 226.783 183.901C224.466 182.414 222.756 180.173 220.06 179.149Z" fill="white"/>
<path fill-rule="evenodd" clip-rule="evenodd" d="M217.213 141.853C219.537 141.345 221.764 140.643 223.87 139.754C226.55 141.459 229.079 143.405 231.41 145.552C231.06 147.834 231.243 150.533 231.051 152.959C223.368 157.591 213.645 149.5 217.213 141.853Z" fill="white"/>
<path fill-rule="evenodd" clip-rule="evenodd" d="M233.874 289.63C235.882 289.324 237.788 288.789 239.555 288.036C242.373 288.9 244.144 291.063 246.278 292.796C246.657 295.217 245.963 296.81 246.209 299.128C240.083 303.847 230.758 296.648 233.874 289.63Z" fill="white"/>
<path fill-rule="evenodd" clip-rule="evenodd" d="M247.397 408.047C250.307 408.322 250.595 406.536 253.738 406.992C254.206 407.711 254.813 408.364 255.519 408.907C256.226 409.45 257.016 409.871 257.837 410.141C258.924 412.815 256.888 413.106 258.209 415.959C255.87 416.293 254.473 417.318 251.981 417.543C250.242 416.453 248.832 414.907 247.995 413.173C247.158 411.439 246.947 409.626 247.397 408.047Z" fill="white"/>
<path fill-rule="evenodd" clip-rule="evenodd" d="M244.161 378.705C250.102 375.894 256.707 380.994 254.387 386.604C253.368 387.505 250.647 387.101 249.842 388.177C248.848 387.798 247.902 387.244 247.066 386.549C246.23 385.853 245.521 385.033 244.986 384.141C244.451 383.249 244.101 382.304 243.959 381.368C243.817 380.432 243.885 379.525 244.161 378.705Z" fill="white"/>
<path fill-rule="evenodd" clip-rule="evenodd" d="M205.807 25.5103C211.737 22.3223 218.317 27.4021 216.761 33.9585C210.684 37.0499 204.096 31.9678 205.807 25.5103Z" fill="white"/>
<path fill-rule="evenodd" clip-rule="evenodd" d="M203.355 -3.26181C204.918 -3.88236 206.76 -4.29862 208.459 -4.8248C209.338 -4.37766 210.146 -3.77906 210.83 -3.06906C211.514 -2.35906 212.058 -1.55399 212.426 -0.707456C212.794 0.139082 212.978 1.00757 212.964 1.84003C212.951 2.6725 212.74 3.44982 212.348 4.12011C207.142 6.71477 201.303 1.76107 203.355 -3.26181Z" fill="white"/>
<path fill-rule="evenodd" clip-rule="evenodd" d="M251.714 437.92C252.899 437.39 254.323 437.258 255.795 437.541C257.267 437.825 258.716 438.511 259.947 439.506C264.292 450.187 246.762 445.125 251.714 437.92Z" fill="white"/>
<path fill-rule="evenodd" clip-rule="evenodd" d="M238.514 320.56C243.344 317.675 249.263 322.225 247.406 327.416C242.403 329.823 237.524 326.059 238.514 320.56Z" fill="white"/>
<path fill-rule="evenodd" clip-rule="evenodd" d="M209.672 55.4102C214.665 52.7907 220.572 56.8163 219.13 62.2764C214.829 65.8783 207.965 61.1807 209.672 55.4102Z" fill="white"/>
<path fill-rule="evenodd" clip-rule="evenodd" d="M216.684 114.592C220.113 112.973 221.988 114.321 224.872 116.187C225.583 118.273 224.258 118.843 224.965 120.948C224.233 121.648 223.174 122.003 221.993 121.944C220.811 121.885 219.59 121.417 218.563 120.629C217.537 119.842 216.778 118.79 216.431 117.676C216.084 116.562 216.174 115.464 216.684 114.592Z" fill="white"/>
<path fill-rule="evenodd" clip-rule="evenodd" d="M213.506 85.288C218.169 83.3899 222.361 86.6214 221.752 91.6306C216.692 93.5627 212.138 90.0555 213.506 85.288Z" fill="white"/>
<path fill-rule="evenodd" clip-rule="evenodd" d="M255.238 468.326C256.73 468.053 257.921 467.561 259.415 467.271C260.544 468.164 261.694 469.034 262.82 469.91C262.912 471.39 262.72 472.657 262.793 474.132C258.092 475.483 255.051 473.141 255.238 468.326Z" fill="white"/>
<path fill-rule="evenodd" clip-rule="evenodd" d="M243.591 350.944C246.295 350.475 246.921 350.474 248.851 352C249.754 353.854 248.536 354.041 249.235 355.717C245.604 357.153 242.316 354.127 243.591 350.944Z" fill="white"/>
<path fill-rule="evenodd" clip-rule="evenodd" d="M263.202 499.267C264.926 504.944 257.169 498.972 263.202 499.267V499.267Z" fill="white"/>
<path fill-rule="evenodd" clip-rule="evenodd" d="M247.304 243.833C249.607 243.823 251.737 243.274 253.509 242.233C256.568 243 258.02 245.796 260.746 246.977C260.535 249.21 260.564 251.508 260.833 253.84C258.734 254.414 256.704 255.115 254.754 255.938C248.806 253.685 246.628 250.12 247.304 243.833Z" fill="white"/>
<path fill-rule="evenodd" clip-rule="evenodd" d="M244.142 214.502C246.036 213.554 249.35 213.718 250.753 212.403C253.031 214.146 255.299 215.925 257.567 217.667C258.285 220.617 257.136 222.122 257.783 225.047C254.833 225.158 253.17 226.287 250.478 226.611C249.266 226.046 248.134 225.278 247.151 224.353C246.169 223.429 245.356 222.368 244.764 221.235C244.171 220.102 243.81 218.92 243.703 217.763C243.596 216.605 243.746 215.496 244.142 214.502Z" fill="white"/>
<path fill-rule="evenodd" clip-rule="evenodd" d="M240.977 185.153C243.079 184.373 246.146 184.351 247.573 183.047C249.85 184.802 252.117 186.559 254.376 188.318C254.371 190.838 254.287 193.329 254.036 195.668C251.786 195.782 249.689 196.322 247.862 197.258C242.706 194.73 239.736 190.978 240.977 185.153Z" fill="white"/>
<path fill-rule="evenodd" clip-rule="evenodd" d="M237.736 155.788C240.628 155.587 241.859 154.114 245.106 154.193C247.277 155.639 249.046 157.598 251.292 158.947C250.921 161.084 251.18 163.708 250.813 165.856C244.012 169.848 235.668 163.436 237.736 155.788Z" fill="white"/>
<path fill-rule="evenodd" clip-rule="evenodd" d="M251.146 273.699C253.187 273.476 255.102 272.945 256.822 272.123C259.75 272.824 261.248 275.361 263.545 276.886C263.77 279.181 263.178 280.859 263.476 283.224C257.194 287.454 248.497 280.737 251.146 273.699Z" fill="white"/>
<path fill-rule="evenodd" clip-rule="evenodd" d="M235.203 126.937C239.35 123.99 244.126 126.339 247.555 129.61C247.177 131.64 247.153 133.786 247.483 135.977C241.013 139.795 232.814 134.044 235.203 126.937Z" fill="white"/>
<path fill-rule="evenodd" clip-rule="evenodd" d="M264.588 392.107C268.838 390.453 272.529 391.352 275.232 394.754C275.944 396.992 274.501 397.604 275.462 400.063C270.207 403.922 262.822 398.909 264.588 392.107Z" fill="white"/>
<path fill-rule="evenodd" clip-rule="evenodd" d="M255.219 304.632C259.607 300.604 267.474 306.032 265.355 312.032C259.632 314.252 254.491 310.721 255.219 304.632Z" fill="white"/>
<path fill-rule="evenodd" clip-rule="evenodd" d="M268.478 422.012C273.664 418.936 280.156 424.511 277.511 429.41C272.505 432.106 267.143 427.424 268.478 422.012Z" fill="white"/>
<path fill-rule="evenodd" clip-rule="evenodd" d="M272.324 451.884C276.677 449.126 282.232 453.398 280.55 458.228C279.819 458.925 278.765 459.277 277.589 459.216C276.414 459.156 275.199 458.687 274.179 457.901C273.159 457.114 272.406 456.065 272.063 454.955C271.721 453.844 271.814 452.751 272.324 451.884Z" fill="white"/>
<path fill-rule="evenodd" clip-rule="evenodd" d="M262.262 363.858C266.184 360.139 273.111 364.834 271.017 370.181C267.056 372.919 261.332 369.059 262.262 363.858Z" fill="white"/>
<path fill-rule="evenodd" clip-rule="evenodd" d="M230.776 69.3302C234.213 67.7021 236.1 69.0517 238.991 70.9228C239.305 72.7488 238.215 73.4779 239.074 75.6971C234.079 77.7184 229.205 73.9779 230.776 69.3302Z" fill="white"/>
<path fill-rule="evenodd" clip-rule="evenodd" d="M227.453 39.4715C228.625 38.9437 230.035 38.8124 231.492 39.0951C232.949 39.3778 234.382 40.061 235.598 41.0521C236.616 43.3931 235.659 44.218 236.375 46.3374C235.6 47.1305 234.453 47.5437 233.161 47.4948C231.87 47.4458 230.529 46.9384 229.405 46.0734C228.281 45.2084 227.456 44.0491 227.094 42.8259C226.733 41.6027 226.861 40.4052 227.453 39.4715Z" fill="white"/>
<path fill-rule="evenodd" clip-rule="evenodd" d="M229.712 9.60539C229.92 10.1366 230.298 10.6297 230.788 11.0097C231.278 11.3897 231.853 11.6356 232.426 11.71C232.728 13.5 232.802 15.2667 232.646 16.9723C226.221 21.9261 219.098 7.89851 229.712 9.60539Z" fill="white"/>
<path fill-rule="evenodd" clip-rule="evenodd" d="M260.655 338.74C259.951 337.05 261.178 336.855 260.267 335.01C261.186 334.598 262.282 334.478 263.423 334.664C264.563 334.85 265.699 335.335 266.693 336.059C267.053 336.858 267.128 337.684 266.905 338.399C266.682 339.114 266.174 339.676 265.468 339.989C264.761 340.303 263.897 340.35 263.022 340.123C262.146 339.895 261.31 339.407 260.655 338.74Z" fill="white"/>
<path fill-rule="evenodd" clip-rule="evenodd" d="M235.195 99.2048C238.529 98.6064 238.828 99.2325 241.155 100.794C241.45 102.306 240.682 102.997 240.989 104.507C237.09 106.036 233.76 102.42 235.195 99.2048Z" fill="white"/>
<path fill-rule="evenodd" clip-rule="evenodd" d="M277.633 485.455C277.228 484.147 278.094 483.818 278.089 482.784C279.91 482.364 280.595 483.382 281.725 483.866C281.269 485.087 281.484 486.827 279.035 486.521C279.007 485.616 278.342 485.519 277.633 485.455Z" fill="white"/>
<path fill-rule="evenodd" clip-rule="evenodd" d="M281.995 514.828C281.485 513.43 281.628 512.551 283.118 512.714C283.725 513.328 284.113 514.081 284.206 514.827C283.474 514.826 282.732 514.828 281.995 514.828Z" fill="white"/>
<path fill-rule="evenodd" clip-rule="evenodd" d="M265.228 235.321C265.108 232.951 265.509 230.982 265.154 228.449C267.96 228.336 269.244 227.055 271.933 226.854C273.367 228.682 275.299 230.167 277.448 231.092C277.508 233.438 277.345 235.736 276.961 237.96C274.828 238.386 272.745 238.918 270.722 239.556C269.296 237.729 267.371 236.245 265.228 235.321Z" fill="white"/>
<path fill-rule="evenodd" clip-rule="evenodd" d="M261.989 199.051C266.592 196.44 271.608 198.138 274.523 202.758C273.796 204.05 274.426 206.375 274.2 208.045C272.284 208.985 269.721 209.4 267.549 210.166C263.404 206.936 260.809 204.571 261.989 199.051Z" fill="white"/>
<path fill-rule="evenodd" clip-rule="evenodd" d="M258.798 169.712C263.619 167.229 268.412 168.73 271.44 173.434C270.23 174.371 271.149 176.933 271.114 178.749C264.591 182.545 256.772 177.094 258.798 169.712Z" fill="white"/>
<path fill-rule="evenodd" clip-rule="evenodd" d="M255.58 139.89C257.807 139.694 259.906 139.167 261.804 138.326C263.992 139.734 266.065 141.324 267.988 143.069C267.988 145.199 267.927 147.276 267.932 149.401C261.566 153.587 253.16 147.116 255.58 139.89Z" fill="white"/>
<path fill-rule="evenodd" clip-rule="evenodd" d="M272.267 287.668C274.127 287.442 275.857 286.91 277.385 286.093C279.59 287.689 282.157 288.86 283.676 291.359C283.017 292.838 283.629 295.289 282.792 296.631C276.505 299.82 270.008 293.687 272.267 287.668Z" fill="white"/>
<path fill-rule="evenodd" clip-rule="evenodd" d="M269.021 258.276C270.567 257.366 272.578 257.132 274.65 257.619C276.722 258.107 278.703 259.281 280.195 260.905C280.017 262.818 279.954 264.764 280.006 266.733C278.425 267.36 275.982 267.327 274.876 268.324C270.33 265.936 267.854 263.378 269.021 258.276Z" fill="white"/>
<path fill-rule="evenodd" clip-rule="evenodd" d="M281.856 376.221C287.793 373.371 294.206 377.687 292.705 384.147C287.404 387.679 280.498 382.894 281.856 376.221Z" fill="white"/>
<path fill-rule="evenodd" clip-rule="evenodd" d="M253.296 112.104C255.278 111.497 256.275 110.123 259.557 110.515C260.03 111.243 260.646 111.903 261.363 112.452C262.079 113.001 262.881 113.426 263.713 113.698C263.977 115.474 262.691 116.053 263.8 118.471C259.728 122.519 251.981 118.629 253.296 112.104Z" fill="white"/>
<path fill-rule="evenodd" clip-rule="evenodd" d="M285.76 406.067C289.474 403.574 292.463 405.389 295.735 408.186C295.413 409.889 295.302 411.665 295.405 413.482C290.436 416.442 283.943 411.455 285.76 406.067Z" fill="white"/>
<path fill-rule="evenodd" clip-rule="evenodd" d="M289.065 435.942C289.618 435.449 290.307 435.097 291.089 434.909C291.871 434.721 292.727 434.701 293.602 434.852C294.477 435.002 295.352 435.318 296.17 435.781C296.989 436.243 297.731 436.841 298.351 437.536C297.823 438.978 298.528 441.376 298.014 442.824C295.759 442.65 295.182 443.773 292.604 443.354C291.341 442.424 290.326 441.218 289.694 439.895C289.062 438.572 288.843 437.194 289.065 435.942Z" fill="white"/>
<path fill-rule="evenodd" clip-rule="evenodd" d="M279.919 347.4C285.322 345.634 289.577 349.482 288.287 354.292C282.835 356.262 278.595 352.341 279.919 347.4Z" fill="white"/>
<path fill-rule="evenodd" clip-rule="evenodd" d="M253.057 30.4219C245.609 34.8285 241.226 22.5057 248.466 23.0472C251.832 23.3048 254.045 26.8279 253.057 30.4219Z" fill="white"/>
<path fill-rule="evenodd" clip-rule="evenodd" d="M241.828 -4.7326C245.732 -8.04158 251.87 -2.60601 248.801 1.0842C244.487 2.00928 241.911 -0.341818 241.828 -4.7326Z" fill="white"/>
<path fill-rule="evenodd" clip-rule="evenodd" d="M295.109 465.813C297.61 465.223 298.126 467.113 299.937 467.399C299.993 468.3 299.818 469.151 299.427 469.884C299.037 470.616 298.44 471.211 297.686 471.62C293.969 471.088 292.904 467.534 295.109 465.813Z" fill="white"/>
<path fill-rule="evenodd" clip-rule="evenodd" d="M283.859 324.417C280.136 325.719 277.024 322.754 277.278 320.184C277.698 315.675 286.829 319.51 283.859 324.417Z" fill="white"/>
<path fill-rule="evenodd" clip-rule="evenodd" d="M252.473 83.321C256.348 81.7984 259.652 85.4098 258.201 88.5941C254.197 90.0183 251.272 86.7006 252.473 83.321Z" fill="white"/>
<path fill-rule="evenodd" clip-rule="evenodd" d="M248.722 53.9609C252.524 52.0879 256.521 55.1669 255.58 59.2565C251.677 60.8276 247.894 58.2021 248.722 53.9609Z" fill="white"/>
<path fill-rule="evenodd" clip-rule="evenodd" d="M298.707 496.748C299.152 496.65 299.637 496.644 300.131 496.731C300.626 496.818 301.12 496.996 301.583 497.254C301.145 498.053 301.722 499.625 299.936 499.383C299.562 499.005 299.259 498.576 299.048 498.122C298.836 497.669 298.72 497.201 298.707 496.748Z" fill="white"/>
<path fill-rule="evenodd" clip-rule="evenodd" d="M299.156 360.316C301.496 359.995 302.878 358.937 305.362 358.751C305.833 359.469 306.443 360.122 307.151 360.664C307.859 361.207 308.65 361.628 309.471 361.899C310.338 364.295 310.362 366.706 309.538 368.746C303.911 371.852 297.387 366.427 299.156 360.316Z" fill="white"/>
<path fill-rule="evenodd" clip-rule="evenodd" d="M289.613 272.279C291.521 271.445 293.621 270.911 295.845 270.693C296.314 271.415 296.924 272.071 297.635 272.615C298.345 273.16 299.14 273.58 299.965 273.849C301.156 276.759 299.508 277.46 300.475 280.209C294.717 283.206 288.027 278.672 289.613 272.279Z" fill="white"/>
<path fill-rule="evenodd" clip-rule="evenodd" d="M283.273 213.58C285.463 213.141 286.452 211.779 289.503 211.988C289.973 212.712 290.583 213.37 291.294 213.917C292.006 214.465 292.801 214.889 293.628 215.162C293.938 217.337 293.917 219.468 293.565 221.493C287.597 223.808 282.384 219.784 283.273 213.58Z" fill="white"/>
<path fill-rule="evenodd" clip-rule="evenodd" d="M279.99 183.737C281.566 183.113 284 183.141 285.105 182.152C287.087 183.329 288.928 184.753 290.559 186.371C290.924 188.386 290.859 190.353 290.368 192.159C284.593 194.927 278.654 189.953 279.99 183.737Z" fill="white"/>
<path fill-rule="evenodd" clip-rule="evenodd" d="M276.814 154.392C278.57 153.962 280.276 153.435 281.924 152.813C283.911 153.98 285.755 155.4 287.385 157.019C287.916 159.13 287.091 160.202 287.625 162.303C282.277 165.776 275.434 161.033 276.814 154.392Z" fill="white"/>
<path fill-rule="evenodd" clip-rule="evenodd" d="M273.63 125.049C275.499 124.825 277.234 124.288 278.762 123.461C280.761 124.635 282.613 126.065 284.247 127.697C284.483 129.568 283.475 130.499 284.472 132.951C278.261 135.604 272.476 131.773 273.63 125.049Z" fill="white"/>
<path fill-rule="evenodd" clip-rule="evenodd" d="M306.292 420.048C306.992 419.193 308.084 418.696 309.353 418.656C310.622 418.617 311.976 419.036 313.149 419.832C314.322 420.628 315.228 421.743 315.689 422.958C316.151 424.173 316.134 425.399 315.642 426.395C311.285 429.651 304.834 425.802 306.292 420.048Z" fill="white"/>
<path fill-rule="evenodd" clip-rule="evenodd" d="M302.959 390.125C304.298 389.246 306.086 388.976 307.951 389.372C309.816 389.768 311.613 390.799 312.967 392.25C312.481 393.709 312.517 395.377 313.072 397.044C308.795 401.027 300.795 396.089 302.959 390.125Z" fill="white"/>
<path fill-rule="evenodd" clip-rule="evenodd" d="M292.232 241.894C293.862 242.762 295.215 244.115 296.014 245.676C296.814 247.237 297 248.889 296.535 250.294C294.758 250.55 293.022 250.907 291.337 251.361C290.098 250.799 289.013 249.883 288.273 248.774C287.533 247.665 287.186 246.435 287.293 245.302C287.4 244.169 287.955 243.205 288.859 242.581C289.763 241.958 290.958 241.714 292.232 241.894Z" fill="white"/>
<path fill-rule="evenodd" clip-rule="evenodd" d="M262.124 8.17802C266.791 5.64491 271.695 9.41935 270.365 14.5265C265.133 16.1204 261.111 13.0345 262.124 8.17802Z" fill="white"/>
<path fill-rule="evenodd" clip-rule="evenodd" d="M311.155 449.408C312.919 449.789 313.014 448.885 314.316 448.882C314.999 449.206 315.634 449.647 316.181 450.177C316.728 450.706 317.174 451.313 317.491 451.958C317.808 452.603 317.988 453.271 318.021 453.921C318.054 454.571 317.939 455.187 317.682 455.731C312.852 457.633 308.767 452.763 311.155 449.408Z" fill="white"/>
<path fill-rule="evenodd" clip-rule="evenodd" d="M294.147 302.64C295.21 301.885 296.656 301.628 298.178 301.922C299.701 302.216 301.179 303.038 302.3 304.214C301.859 305.505 301.842 306.971 302.25 308.455C301.54 308.363 300.851 308.41 300.23 308.592C299.608 308.774 299.067 309.088 298.641 309.513C297.916 309.238 297.223 308.841 296.604 308.346C295.984 307.851 295.45 307.266 295.032 306.627C294.614 305.988 294.321 305.306 294.169 304.622C294.017 303.937 294.01 303.264 294.147 302.64Z" fill="white"/>
<path fill-rule="evenodd" clip-rule="evenodd" d="M275.439 95.7157C278.03 97.3219 279.589 97.8929 279.611 101.493C279.331 101.96 278.907 102.322 278.379 102.545C277.852 102.767 277.237 102.843 276.595 102.765C275.953 102.687 275.303 102.457 274.709 102.098C274.114 101.739 273.593 101.262 273.197 100.713C272.8 100.164 272.54 99.5599 272.441 98.9591C272.343 98.3582 272.409 97.7802 272.634 97.2797C272.858 96.7792 273.234 96.3728 273.725 96.0991C274.215 95.8254 274.805 95.6935 275.439 95.7157Z" fill="white"/>
<path fill-rule="evenodd" clip-rule="evenodd" d="M298.409 336.263C297.707 334.599 298.927 334.4 298.025 332.576C300.123 332.931 299.844 331.42 301.619 331.522C302.721 332.149 303.637 333.073 304.207 334.134C304.777 335.194 304.965 336.322 304.737 337.321C303.877 337.824 302.784 337.993 301.635 337.801C300.487 337.609 299.35 337.067 298.409 336.263Z" fill="white"/>
<path fill-rule="evenodd" clip-rule="evenodd" d="M269.516 71.1149C269.229 69.6122 269.978 68.8886 269.682 67.3801C270.538 67.0434 271.539 66.9646 272.572 67.1527C273.606 67.3408 274.63 67.7882 275.529 68.4444C276.57 70.6543 275.096 70.9655 275.489 72.6956C272.15 73.3099 271.864 72.6792 269.516 71.1149Z" fill="white"/>
<path fill-rule="evenodd" clip-rule="evenodd" d="M266.333 41.7475C266.274 40.8498 266.445 40.0021 266.832 39.2727C267.219 38.5433 267.812 37.9525 268.563 37.548C273.255 38.2143 273.414 43.3312 269.601 43.8536C268.348 43.3574 267.952 41.7973 266.333 41.7475Z" fill="white"/>
<path fill-rule="evenodd" clip-rule="evenodd" d="M315.939 482.96C315.334 481.069 316.036 480.185 318.047 480.294C318.418 480.78 318.782 481.249 319.425 481.375C319.373 483.216 317.768 484.779 315.939 482.96Z" fill="white"/>
<path fill-rule="evenodd" clip-rule="evenodd" d="M319.487 511.791C319.365 510.832 320.135 510.569 321.465 510.707C321.602 511.249 321.739 511.788 321.879 512.329C320.744 512.555 320.281 511.953 319.487 511.791Z" fill="white"/>
<path fill-rule="evenodd" clip-rule="evenodd" d="M322.738 403.087C328.786 399.627 336.023 405.836 333.151 411.523C327.203 414.135 321.751 409.432 322.738 403.087Z" fill="white"/>
<path fill-rule="evenodd" clip-rule="evenodd" d="M319.832 379.547C320.331 378.093 320.297 376.423 319.734 374.755C322.695 371.571 327.032 373.283 330.177 376.357C330.419 378.257 329.414 379.211 330.417 381.679C327.863 381.717 327.216 383.218 323.979 382.733C323.507 382.006 322.893 381.347 322.178 380.797C321.463 380.248 320.663 379.822 319.832 379.547Z" fill="white"/>
<path fill-rule="evenodd" clip-rule="evenodd" d="M316.429 344.401C317.938 343.73 320.757 344.062 321.547 342.833C323.53 344.003 325.372 345.422 327.002 347.037C327.964 349.476 326.522 350.077 327.244 352.316C321.964 355.841 315.075 351.071 316.429 344.401Z" fill="white"/>
<path fill-rule="evenodd" clip-rule="evenodd" d="M297.319 168.31C298.142 167.344 299.408 166.792 300.869 166.764C302.331 166.735 303.883 167.231 305.223 168.155C306.564 169.078 307.595 170.363 308.117 171.759C308.639 173.154 308.613 174.56 308.045 175.702C302.858 179.031 296.022 174.809 297.319 168.31Z" fill="white"/>
<path fill-rule="evenodd" clip-rule="evenodd" d="M307.968 256.369C312.898 253.61 318.449 258.434 316.999 263.755C311.637 266.715 305.527 261.413 307.968 256.369Z" fill="white"/>
<path fill-rule="evenodd" clip-rule="evenodd" d="M304.351 227.544C308.354 223.694 315.663 228.755 313.793 234.387C312 234.644 310.248 234.998 308.543 235.446C305.634 233.318 303.437 231.435 304.351 227.544Z" fill="white"/>
<path fill-rule="evenodd" clip-rule="evenodd" d="M295.192 138.464C295.997 138.597 296.782 138.571 297.496 138.389C298.21 138.207 298.837 137.873 299.335 137.409C301.087 138.402 302.703 139.648 304.103 141.086C304.033 142.602 304.297 144.358 304.217 145.849C298.89 148.842 292.863 143.614 295.192 138.464Z" fill="white"/>
<path fill-rule="evenodd" clip-rule="evenodd" d="M311.295 286.256C318.134 281.844 323.534 293.658 316.438 293.618C312.94 293.603 310.286 290.28 311.295 286.256Z" fill="white"/>
<path fill-rule="evenodd" clip-rule="evenodd" d="M301.186 198.193C305.349 194.79 311.981 198.782 310.527 204.54C306.434 207.319 300.253 203.754 301.186 198.193Z" fill="white"/>
<path fill-rule="evenodd" clip-rule="evenodd" d="M292.098 109.645C296.433 106.529 302.504 111.841 300.447 116.523C295.16 118.379 290.625 114.295 292.098 109.645Z" fill="white"/>
<path fill-rule="evenodd" clip-rule="evenodd" d="M279.37 -7.74957C283.817 -10.4468 289.174 -6.31638 287.615 -1.38095C282.197 0.063031 278.483 -2.79748 279.37 -7.74957Z" fill="white"/>
<path fill-rule="evenodd" clip-rule="evenodd" d="M289.94 84.5337C289.655 83.0294 290.404 82.3232 290.108 80.8142C290.962 80.4755 291.963 80.397 292.995 80.5877C294.028 80.7784 295.051 81.2306 295.945 81.8923C296.363 83.3733 296.351 84.8374 295.91 86.1254C292.916 86.9974 292.147 86.0019 289.94 84.5337Z" fill="white"/>
<path fill-rule="evenodd" clip-rule="evenodd" d="M290.714 50.9477C297.88 55.9353 288.476 59.6547 286.653 54.6621C285.909 52.6145 286.914 50.6955 290.714 50.9477Z" fill="white"/>
<path fill-rule="evenodd" clip-rule="evenodd" d="M284.182 25.8184C282.784 23.7961 282.964 21.2109 286.421 21.5899C293.63 22.4065 288.403 31.9343 284.182 25.8184Z" fill="white"/>
<path fill-rule="evenodd" clip-rule="evenodd" d="M315.842 316.661C320.603 314.092 323.774 322.174 318.238 321.887C317.398 321.2 316.729 320.347 316.306 319.424C315.883 318.501 315.722 317.544 315.842 316.661Z" fill="white"/>
<path fill-rule="evenodd" clip-rule="evenodd" d="M318.989 182.291C323.435 179.573 328.793 183.7 327.234 188.631C321.817 190.1 318.11 187.238 318.989 182.291Z" fill="white"/>
<path fill-rule="evenodd" clip-rule="evenodd" d="M315.719 157.181C316.168 155.893 316.187 154.427 315.771 152.943C317.71 152.697 318.388 151.517 321.077 151.871C321.288 152.409 321.674 152.908 322.175 153.29C322.675 153.672 323.262 153.916 323.843 153.984C324.288 155.872 324.177 157.716 323.522 159.313C319.971 160.682 318.468 158.524 315.719 157.181Z" fill="white"/>
<path fill-rule="evenodd" clip-rule="evenodd" d="M312.533 127.838C312.675 126.223 312.872 124.662 313.011 123.062C314.842 123.031 315.56 122.157 317.896 122.53C318.11 123.068 318.496 123.567 318.996 123.951C319.495 124.335 320.08 124.583 320.663 124.659C321.111 126.542 321 128.382 320.341 129.971C316.49 131.121 315.442 129.312 312.533 127.838Z" fill="white"/>
<path fill-rule="evenodd" clip-rule="evenodd" d="M317.429 99.5416C313.577 102.831 307.792 97.1453 310.033 94.264C312.096 91.6289 318.464 94.0802 317.429 99.5416Z" fill="white"/>
<path fill-rule="evenodd" clip-rule="evenodd" d="M300.357 5.6941C304.694 4.07445 308.428 6.95544 307.892 11.4945C303.561 13.7712 299.177 10.3899 300.357 5.6941Z" fill="white"/>
<path fill-rule="evenodd" clip-rule="evenodd" d="M307.169 68.628C306.558 64.9835 310.197 63.3481 313.19 65.9561C313.615 67.444 313.604 68.9158 313.157 70.2083C309.683 70.9851 309.746 69.9026 307.169 68.628Z" fill="white"/>
<path fill-rule="evenodd" clip-rule="evenodd" d="M309.976 36.6138C312.297 48.7691 297.636 34.1169 306.843 35.0459C308.626 35.2131 307.96 35.7056 309.976 36.6138Z" fill="white"/>
</g>
</svg>
